<svg width="1200" height="760" viewBox="0 0 1200 760" fill="none" xmlns="http://www.w3.org/2000/svg">
<rect width="1200" height="760" fill="white"/>
<path d="M659.868 48H502.752C494.488 48 487.789 54.6993 487.789 62.9634V98.5014C487.789 106.765 494.488 113.465 502.752 113.465H659.868C668.132 113.465 674.831 106.765 674.831 98.5014V62.9634C674.831 54.6993 668.132 48 659.868 48Z" fill="white" stroke="#111111" stroke-width="1.87042"/>
<path d="M545.202 87.6394V72.6761H551.105C552.24 72.6761 553.207 72.8928 554.006 73.3263C554.805 73.755 555.414 74.3516 555.833 75.1164C556.256 75.8762 556.468 76.753 556.468 77.7467C556.468 78.7403 556.254 79.6171 555.825 80.3769C555.397 81.1368 554.776 81.7286 553.962 82.1524C553.154 82.5761 552.175 82.788 551.025 82.788H547.262V80.2527H550.514C551.122 80.2527 551.624 80.148 552.019 79.9386C552.418 79.7242 552.715 79.4295 552.91 79.0545C553.11 78.6746 553.21 78.2386 553.21 77.7467C553.21 77.2498 553.11 76.8163 552.91 76.4461C552.715 76.0711 552.418 75.7812 552.019 75.5767C551.619 75.3672 551.113 75.2625 550.499 75.2625H548.366V87.6394H545.202ZM558.465 87.6394V76.4169H561.482V78.375H561.599C561.804 77.6785 562.147 77.1524 562.629 76.7968C563.112 76.4364 563.667 76.2562 564.295 76.2562C564.451 76.2562 564.619 76.2659 564.799 76.2854C564.98 76.3049 565.138 76.3317 565.274 76.3658V79.1276C565.128 79.0837 564.926 79.0447 564.668 79.0106C564.41 78.9766 564.173 78.9595 563.959 78.9595C563.501 78.9595 563.092 79.0594 562.732 79.2591C562.376 79.4539 562.094 79.7267 561.884 80.0774C561.68 80.4281 561.577 80.8324 561.577 81.2902V87.6394H558.465ZM571.432 87.8586C570.297 87.8586 569.315 87.6175 568.487 87.1353C567.664 86.6482 567.028 85.9712 566.58 85.1041C566.132 84.2322 565.908 83.2215 565.908 82.072C565.908 80.9127 566.132 79.8996 566.58 79.0326C567.028 78.1607 567.664 77.4836 568.487 77.0014C569.315 76.5143 570.297 76.2708 571.432 76.2708C572.567 76.2708 573.546 76.5143 574.369 77.0014C575.197 77.4836 575.835 78.1607 576.283 79.0326C576.731 79.8996 576.955 80.9127 576.955 82.072C576.955 83.2215 576.731 84.2322 576.283 85.1041C575.835 85.9712 575.197 86.6482 574.369 87.1353C573.546 87.6175 572.567 87.8586 571.432 87.8586ZM571.446 85.4475C571.963 85.4475 572.394 85.3014 572.739 85.0092C573.085 84.712 573.346 84.3077 573.521 83.7963C573.701 83.2849 573.792 82.7028 573.792 82.0501C573.792 81.3974 573.701 80.8153 573.521 80.3039C573.346 79.7924 573.085 79.3881 572.739 79.091C572.394 78.7939 571.963 78.6453 571.446 78.6453C570.925 78.6453 570.487 78.7939 570.131 79.091C569.78 79.3881 569.515 79.7924 569.335 80.3039C569.159 80.8153 569.072 81.3974 569.072 82.0501C569.072 82.7028 569.159 83.2849 569.335 83.7963C569.515 84.3077 569.78 84.712 570.131 85.0092C570.487 85.3014 570.925 85.4475 571.446 85.4475ZM578.979 76.4169H582.092V88.1947C582.092 89.0617 581.921 89.7631 581.58 90.2989C581.239 90.8347 580.75 91.2268 580.112 91.4753C579.478 91.7237 578.721 91.8479 577.839 91.8479C577.732 91.8479 577.63 91.8455 577.532 91.8406C577.43 91.8406 577.323 91.8381 577.211 91.8333V89.4003C577.294 89.4051 577.367 89.4076 577.43 89.4076C577.489 89.4124 577.552 89.4149 577.62 89.4149C578.122 89.4149 578.473 89.3077 578.672 89.0934C578.877 88.8839 578.979 88.5673 578.979 88.1436V76.4169ZM580.528 74.9702C580.07 74.9702 579.676 74.8168 579.344 74.5099C579.013 74.1982 578.848 73.8256 578.848 73.3921C578.848 72.9634 579.013 72.5957 579.344 72.2888C579.676 71.9771 580.07 71.8212 580.528 71.8212C580.996 71.8212 581.393 71.9771 581.719 72.2888C582.05 72.5957 582.216 72.9634 582.216 73.3921C582.216 73.8256 582.05 74.1982 581.719 74.5099C581.393 74.8168 580.996 74.9702 580.528 74.9702ZM589.699 87.8586C588.545 87.8586 587.551 87.6248 586.718 87.1572C585.89 86.6847 585.252 86.0174 584.804 85.1553C584.356 84.2883 584.132 83.2629 584.132 82.0793C584.132 80.9249 584.356 79.9118 584.804 79.0399C585.252 78.168 585.883 77.4885 586.696 77.0014C587.515 76.5143 588.474 76.2708 589.575 76.2708C590.315 76.2708 591.005 76.3901 591.643 76.6288C592.286 76.8626 592.846 77.2157 593.323 77.6882C593.805 78.1607 594.181 78.7549 594.448 79.4709C594.716 80.1821 594.85 81.015 594.85 81.9697V82.8246H585.374V80.8957H591.92C591.92 80.4476 591.823 80.0506 591.628 79.7048C591.433 79.3589 591.163 79.0886 590.817 78.8937C590.476 78.694 590.079 78.5942 589.626 78.5942C589.154 78.5942 588.735 78.7038 588.37 78.923C588.009 79.1373 587.727 79.4271 587.522 79.7924C587.317 80.1529 587.213 80.5547 587.208 80.998V82.8319C587.208 83.3871 587.31 83.8669 587.515 84.2712C587.724 84.6755 588.019 84.9872 588.399 85.2064C588.779 85.4256 589.229 85.5352 589.75 85.5352C590.096 85.5352 590.413 85.4865 590.7 85.3891C590.988 85.2917 591.234 85.1455 591.438 84.9507C591.643 84.7559 591.799 84.5172 591.906 84.2347L594.785 84.4246C594.638 85.1163 594.339 85.7203 593.886 86.2366C593.438 86.7481 592.858 87.1475 592.147 87.4349C591.441 87.7174 590.625 87.8586 589.699 87.8586ZM601.952 87.8586C600.803 87.8586 599.814 87.6151 598.986 87.128C598.162 86.636 597.529 85.9541 597.086 85.0822C596.648 84.2103 596.428 83.2069 596.428 82.072C596.428 80.9225 596.65 79.9142 597.093 79.0472C597.541 78.1753 598.177 77.4958 599 77.0087C599.823 76.5168 600.803 76.2708 601.937 76.2708C602.916 76.2708 603.774 76.4486 604.509 76.8041C605.245 77.1597 605.827 77.659 606.255 78.3019C606.684 78.9449 606.92 79.6999 606.964 80.5669H604.027C603.944 80.0067 603.725 79.5562 603.369 79.2152C603.019 78.8694 602.558 78.6965 601.989 78.6965C601.506 78.6965 601.085 78.828 600.725 79.091C600.369 79.3492 600.091 79.7267 599.892 80.2235C599.692 80.7203 599.592 81.3219 599.592 82.0282C599.592 82.7442 599.69 83.353 599.884 83.8548C600.084 84.3565 600.364 84.7388 600.725 85.0018C601.085 85.2649 601.506 85.3964 601.989 85.3964C602.344 85.3964 602.663 85.3233 602.946 85.1772C603.233 85.0311 603.469 84.8192 603.654 84.5415C603.844 84.259 603.969 83.9205 604.027 83.526H606.964C606.915 84.3832 606.682 85.1382 606.263 85.7909C605.849 86.4388 605.276 86.9453 604.546 87.3106C603.815 87.676 602.951 87.8586 601.952 87.8586ZM614.926 76.4169V78.7549H608.168V76.4169H614.926ZM609.702 73.7282H612.815V84.1908C612.815 84.4782 612.859 84.7023 612.946 84.863C613.034 85.0189 613.156 85.1285 613.312 85.1918C613.472 85.2551 613.657 85.2868 613.867 85.2868C614.013 85.2868 614.159 85.2746 614.305 85.2503C614.451 85.221 614.563 85.1991 614.641 85.1845L615.131 87.5006C614.975 87.5493 614.756 87.6053 614.473 87.6687C614.191 87.7369 613.847 87.7783 613.443 87.7929C612.693 87.8221 612.035 87.7222 611.47 87.4933C610.91 87.2644 610.474 86.9088 610.163 86.4266C609.851 85.9444 609.697 85.3355 609.702 84.6V73.7282Z" fill="#111111"/>
<path d="M581.31 113.465V160.225" stroke="#111111" stroke-width="1.87042"/>
<path d="M659.868 160.225H502.752C494.488 160.225 487.789 166.925 487.789 175.189V210.727C487.789 218.991 494.488 225.69 502.752 225.69H659.868C668.132 225.69 674.831 218.991 674.831 210.727V175.189C674.831 166.925 668.132 160.225 659.868 160.225Z" fill="white" stroke="#111111" stroke-width="1.87042"/>
<path d="M553.88 200H550.49L555.655 185.037H559.732L564.89 200H561.5L557.752 188.456H557.635L553.88 200ZM553.668 194.118H561.676V196.588H553.668V194.118ZM575.709 191.978L572.86 192.153C572.811 191.909 572.706 191.69 572.546 191.495C572.385 191.296 572.173 191.137 571.91 191.021C571.652 190.899 571.342 190.838 570.982 190.838C570.5 190.838 570.093 190.94 569.762 191.145C569.431 191.344 569.265 191.612 569.265 191.948C569.265 192.216 569.372 192.443 569.586 192.628C569.801 192.813 570.169 192.962 570.69 193.074L572.721 193.483C573.812 193.707 574.625 194.067 575.161 194.564C575.697 195.061 575.965 195.714 575.965 196.522C575.965 197.258 575.748 197.903 575.315 198.458C574.886 199.014 574.297 199.447 573.547 199.759C572.801 200.066 571.942 200.219 570.967 200.219C569.482 200.219 568.298 199.91 567.416 199.291C566.54 198.668 566.026 197.82 565.875 196.749L568.936 196.588C569.029 197.041 569.253 197.387 569.608 197.625C569.964 197.859 570.419 197.976 570.975 197.976C571.52 197.976 571.959 197.871 572.29 197.662C572.626 197.448 572.796 197.172 572.801 196.836C572.796 196.554 572.677 196.322 572.443 196.142C572.209 195.957 571.849 195.816 571.362 195.718L569.418 195.331C568.322 195.112 567.507 194.732 566.971 194.191C566.44 193.651 566.174 192.962 566.174 192.124C566.174 191.403 566.369 190.782 566.759 190.261C567.153 189.739 567.706 189.338 568.417 189.055C569.133 188.773 569.971 188.631 570.931 188.631C572.348 188.631 573.464 188.931 574.277 189.53C575.095 190.129 575.573 190.945 575.709 191.978ZM587.262 191.978L584.413 192.153C584.364 191.909 584.259 191.69 584.099 191.495C583.938 191.296 583.726 191.137 583.463 191.021C583.205 190.899 582.896 190.838 582.535 190.838C582.053 190.838 581.646 190.94 581.315 191.145C580.984 191.344 580.818 191.612 580.818 191.948C580.818 192.216 580.925 192.443 581.14 192.628C581.354 192.813 581.722 192.962 582.243 193.074L584.274 193.483C585.365 193.707 586.179 194.067 586.714 194.564C587.25 195.061 587.518 195.714 587.518 196.522C587.518 197.258 587.301 197.903 586.868 198.458C586.439 199.014 585.85 199.447 585.1 199.759C584.354 200.066 583.495 200.219 582.521 200.219C581.035 200.219 579.851 199.91 578.97 199.291C578.093 198.668 577.579 197.82 577.428 196.749L580.489 196.588C580.582 197.041 580.806 197.387 581.162 197.625C581.517 197.859 581.973 197.976 582.528 197.976C583.073 197.976 583.512 197.871 583.843 197.662C584.179 197.448 584.35 197.172 584.354 196.836C584.35 196.554 584.23 196.322 583.996 196.142C583.763 195.957 583.402 195.816 582.915 195.718L580.972 195.331C579.876 195.112 579.06 194.732 578.524 194.191C577.993 193.651 577.728 192.962 577.728 192.124C577.728 191.403 577.922 190.782 578.312 190.261C578.707 189.739 579.259 189.338 579.971 189.055C580.687 188.773 581.524 188.631 582.484 188.631C583.901 188.631 585.017 188.931 585.83 189.53C586.649 190.129 587.126 190.945 587.262 191.978ZM594.592 200.219C593.438 200.219 592.444 199.985 591.611 199.518C590.783 199.045 590.145 198.378 589.697 197.516C589.249 196.649 589.025 195.624 589.025 194.44C589.025 193.285 589.249 192.272 589.697 191.4C590.145 190.529 590.776 189.849 591.59 189.362C592.408 188.875 593.367 188.631 594.468 188.631C595.209 188.631 595.898 188.751 596.536 188.989C597.179 189.223 597.739 189.576 598.216 190.049C598.699 190.521 599.074 191.115 599.342 191.832C599.609 192.543 599.743 193.376 599.743 194.33V195.185H590.267V193.256H596.814C596.814 192.808 596.716 192.411 596.521 192.065C596.326 191.719 596.056 191.449 595.71 191.254C595.369 191.055 594.972 190.955 594.519 190.955C594.047 190.955 593.628 191.064 593.263 191.284C592.902 191.498 592.62 191.788 592.415 192.153C592.211 192.513 592.106 192.915 592.101 193.359V195.192C592.101 195.748 592.203 196.227 592.408 196.632C592.617 197.036 592.912 197.348 593.292 197.567C593.672 197.786 594.122 197.896 594.644 197.896C594.989 197.896 595.306 197.847 595.593 197.75C595.881 197.652 596.127 197.506 596.331 197.311C596.536 197.116 596.692 196.878 596.799 196.595L599.678 196.785C599.531 197.477 599.232 198.081 598.779 198.597C598.331 199.109 597.751 199.508 597.04 199.795C596.334 200.078 595.518 200.219 594.592 200.219ZM607.744 188.777V191.115H600.985V188.777H607.744ZM602.52 186.089H605.632V196.551C605.632 196.839 605.676 197.063 605.764 197.224C605.851 197.379 605.973 197.489 606.129 197.552C606.29 197.616 606.475 197.647 606.684 197.647C606.831 197.647 606.977 197.635 607.123 197.611C607.269 197.582 607.381 197.56 607.459 197.545L607.948 199.861C607.793 199.91 607.573 199.966 607.291 200.029C607.008 200.097 606.665 200.139 606.261 200.153C605.511 200.183 604.853 200.083 604.288 199.854C603.728 199.625 603.292 199.269 602.98 198.787C602.668 198.305 602.515 197.696 602.52 196.961V186.089Z" fill="#111111"/>
<path d="M581.31 225.69V272.451M581.31 272.451H225.93M581.31 272.451H936.69" stroke="#111111" stroke-width="1.87042"/>
<path d="M323.192 300.507H147.372C139.108 300.507 132.408 307.206 132.408 315.47V351.008C132.408 359.273 139.108 365.972 147.372 365.972H323.192C331.456 365.972 338.155 359.273 338.155 351.008V315.47C338.155 307.206 331.456 300.507 323.192 300.507Z" fill="white" stroke="#111111" stroke-width="1.87042"/>
<path d="M156.264 330.422H153.063C153.005 330.008 152.886 329.64 152.705 329.318C152.525 328.992 152.294 328.715 152.011 328.486C151.729 328.257 151.402 328.081 151.032 327.96C150.667 327.838 150.27 327.777 149.841 327.777C149.067 327.777 148.392 327.969 147.818 328.354C147.243 328.734 146.797 329.289 146.48 330.02C146.164 330.746 146.006 331.627 146.006 332.665C146.006 333.732 146.164 334.628 146.48 335.354C146.802 336.079 147.25 336.627 147.825 336.997C148.4 337.368 149.064 337.553 149.819 337.553C150.243 337.553 150.635 337.497 150.996 337.385C151.361 337.273 151.685 337.109 151.968 336.895C152.25 336.676 152.484 336.411 152.669 336.099C152.859 335.787 152.99 335.431 153.063 335.032L156.264 335.047C156.181 335.733 155.974 336.396 155.643 337.034C155.316 337.667 154.875 338.235 154.32 338.736C153.77 339.233 153.112 339.628 152.347 339.92C151.588 340.207 150.728 340.351 149.768 340.351C148.434 340.351 147.24 340.049 146.188 339.445C145.141 338.841 144.313 337.967 143.704 336.822C143.1 335.677 142.798 334.292 142.798 332.665C142.798 331.033 143.105 329.645 143.719 328.5C144.332 327.356 145.165 326.484 146.217 325.885C147.27 325.281 148.453 324.979 149.768 324.979C150.635 324.979 151.439 325.1 152.179 325.344C152.925 325.587 153.585 325.943 154.159 326.411C154.734 326.873 155.202 327.441 155.562 328.113C155.928 328.785 156.161 329.555 156.264 330.422ZM161.586 333.658V340.146H158.474V325.183H161.499V330.904H161.63C161.883 330.242 162.293 329.723 162.858 329.348C163.423 328.968 164.131 328.778 164.984 328.778C165.763 328.778 166.443 328.948 167.022 329.289C167.607 329.625 168.06 330.11 168.381 330.743C168.708 331.372 168.868 332.124 168.863 333.001V340.146H165.751V333.556C165.756 332.865 165.58 332.326 165.225 331.941C164.874 331.557 164.382 331.364 163.749 331.364C163.325 331.364 162.95 331.454 162.624 331.635C162.302 331.815 162.049 332.078 161.864 332.424C161.684 332.765 161.591 333.176 161.586 333.658ZM174.513 340.358C173.797 340.358 173.159 340.234 172.599 339.986C172.039 339.732 171.595 339.36 171.269 338.868C170.948 338.371 170.787 337.752 170.787 337.012C170.787 336.389 170.901 335.865 171.13 335.441C171.359 335.017 171.671 334.676 172.065 334.418C172.46 334.16 172.908 333.965 173.41 333.834C173.916 333.702 174.447 333.61 175.003 333.556C175.655 333.488 176.181 333.425 176.581 333.366C176.98 333.303 177.27 333.21 177.45 333.089C177.63 332.967 177.721 332.787 177.721 332.548V332.504C177.721 332.041 177.574 331.683 177.282 331.43C176.995 331.177 176.586 331.05 176.055 331.05C175.495 331.05 175.049 331.174 174.718 331.423C174.386 331.666 174.167 331.973 174.06 332.343L171.181 332.11C171.327 331.428 171.615 330.838 172.044 330.341C172.472 329.84 173.025 329.455 173.702 329.187C174.384 328.914 175.173 328.778 176.069 328.778C176.693 328.778 177.289 328.851 177.859 328.997C178.434 329.143 178.943 329.37 179.386 329.677C179.834 329.983 180.188 330.378 180.446 330.86C180.704 331.337 180.833 331.91 180.833 332.577V340.146H177.881V338.59H177.794C177.613 338.941 177.372 339.25 177.07 339.518C176.768 339.781 176.405 339.988 175.982 340.139C175.558 340.285 175.068 340.358 174.513 340.358ZM175.404 338.21C175.862 338.21 176.267 338.12 176.617 337.94C176.968 337.755 177.243 337.506 177.443 337.195C177.643 336.883 177.742 336.53 177.742 336.135V334.944C177.645 335.008 177.511 335.066 177.341 335.12C177.175 335.168 176.987 335.215 176.778 335.259C176.569 335.298 176.359 335.334 176.15 335.368C175.94 335.397 175.75 335.424 175.58 335.449C175.214 335.502 174.895 335.587 174.623 335.704C174.35 335.821 174.138 335.979 173.987 336.179C173.836 336.374 173.76 336.618 173.76 336.91C173.76 337.334 173.914 337.657 174.221 337.882C174.533 338.101 174.927 338.21 175.404 338.21ZM183.248 340.146V328.924H186.265V330.882H186.382C186.587 330.186 186.93 329.659 187.412 329.304C187.895 328.943 188.45 328.763 189.078 328.763C189.234 328.763 189.402 328.773 189.582 328.792C189.763 328.812 189.921 328.839 190.057 328.873V331.635C189.911 331.591 189.709 331.552 189.451 331.518C189.193 331.484 188.956 331.467 188.742 331.467C188.284 331.467 187.875 331.566 187.515 331.766C187.159 331.961 186.877 332.234 186.667 332.584C186.463 332.935 186.36 333.339 186.36 333.797V340.146H183.248ZM194.545 340.358C193.829 340.358 193.191 340.234 192.631 339.986C192.071 339.732 191.628 339.36 191.301 338.868C190.98 338.371 190.819 337.752 190.819 337.012C190.819 336.389 190.933 335.865 191.162 335.441C191.391 335.017 191.703 334.676 192.098 334.418C192.492 334.16 192.94 333.965 193.442 333.834C193.949 333.702 194.479 333.61 195.035 333.556C195.687 333.488 196.213 333.425 196.613 333.366C197.012 333.303 197.302 333.21 197.482 333.089C197.663 332.967 197.753 332.787 197.753 332.548V332.504C197.753 332.041 197.607 331.683 197.314 331.43C197.027 331.177 196.618 331.05 196.087 331.05C195.527 331.05 195.081 331.174 194.75 331.423C194.419 331.666 194.199 331.973 194.092 332.343L191.214 332.11C191.36 331.428 191.647 330.838 192.076 330.341C192.504 329.84 193.057 329.455 193.734 329.187C194.416 328.914 195.205 328.778 196.101 328.778C196.725 328.778 197.322 328.851 197.892 328.997C198.466 329.143 198.975 329.37 199.419 329.677C199.867 329.983 200.22 330.378 200.478 330.86C200.736 331.337 200.865 331.91 200.865 332.577V340.146H197.913V338.59H197.826C197.646 338.941 197.404 339.25 197.102 339.518C196.8 339.781 196.438 339.988 196.014 340.139C195.59 340.285 195.1 340.358 194.545 340.358ZM195.437 338.21C195.894 338.21 196.299 338.12 196.649 337.94C197 337.755 197.275 337.506 197.475 337.195C197.675 336.883 197.775 336.53 197.775 336.135V334.944C197.677 335.008 197.543 335.066 197.373 335.12C197.207 335.168 197.02 335.215 196.81 335.259C196.601 335.298 196.391 335.334 196.182 335.368C195.972 335.397 195.782 335.424 195.612 335.449C195.247 335.502 194.928 335.587 194.655 335.704C194.382 335.821 194.17 335.979 194.019 336.179C193.868 336.374 193.793 336.618 193.793 336.91C193.793 337.334 193.946 337.657 194.253 337.882C194.565 338.101 194.959 338.21 195.437 338.21ZM208.351 340.366C207.201 340.366 206.212 340.122 205.384 339.635C204.561 339.143 203.928 338.461 203.485 337.589C203.046 336.717 202.827 335.714 202.827 334.579C202.827 333.43 203.049 332.421 203.492 331.554C203.94 330.682 204.576 330.003 205.399 329.516C206.222 329.024 207.201 328.778 208.336 328.778C209.315 328.778 210.172 328.956 210.908 329.311C211.643 329.667 212.225 330.166 212.654 330.809C213.083 331.452 213.319 332.207 213.363 333.074H210.426C210.343 332.514 210.124 332.063 209.768 331.722C209.417 331.376 208.957 331.204 208.387 331.204C207.905 331.204 207.484 331.335 207.123 331.598C206.767 331.856 206.49 332.234 206.29 332.731C206.09 333.227 205.991 333.829 205.991 334.535C205.991 335.251 206.088 335.86 206.283 336.362C206.483 336.864 206.763 337.246 207.123 337.509C207.484 337.772 207.905 337.903 208.387 337.903C208.743 337.903 209.062 337.83 209.344 337.684C209.632 337.538 209.868 337.326 210.053 337.049C210.243 336.766 210.367 336.428 210.426 336.033H213.363C213.314 336.89 213.08 337.645 212.661 338.298C212.247 338.946 211.675 339.452 210.944 339.818C210.214 340.183 209.349 340.366 208.351 340.366ZM221.325 328.924V331.262H214.566V328.924H221.325ZM216.101 326.235H219.213V336.698C219.213 336.985 219.257 337.209 219.345 337.37C219.432 337.526 219.554 337.636 219.71 337.699C219.871 337.762 220.056 337.794 220.265 337.794C220.411 337.794 220.558 337.782 220.704 337.757C220.85 337.728 220.962 337.706 221.04 337.692L221.529 340.008C221.373 340.056 221.154 340.112 220.872 340.176C220.589 340.244 220.246 340.285 219.842 340.3C219.091 340.329 218.434 340.229 217.869 340C217.309 339.771 216.873 339.416 216.561 338.934C216.249 338.451 216.096 337.843 216.101 337.107V326.235ZM228.346 340.366C227.192 340.366 226.198 340.132 225.365 339.664C224.537 339.192 223.899 338.524 223.451 337.662C223.003 336.795 222.779 335.77 222.779 334.586C222.779 333.432 223.003 332.419 223.451 331.547C223.899 330.675 224.53 329.996 225.343 329.508C226.162 329.021 227.121 328.778 228.222 328.778C228.962 328.778 229.652 328.897 230.29 329.136C230.933 329.37 231.493 329.723 231.97 330.195C232.452 330.668 232.827 331.262 233.095 331.978C233.363 332.689 233.497 333.522 233.497 334.477V335.332H224.021V333.403H230.567C230.567 332.955 230.47 332.558 230.275 332.212C230.08 331.866 229.81 331.596 229.464 331.401C229.123 331.201 228.726 331.101 228.273 331.101C227.801 331.101 227.382 331.211 227.016 331.43C226.656 331.644 226.373 331.934 226.169 332.299C225.964 332.66 225.86 333.062 225.855 333.505V335.339C225.855 335.894 225.957 336.374 226.162 336.778C226.371 337.183 226.666 337.494 227.046 337.713C227.426 337.933 227.876 338.042 228.397 338.042C228.743 338.042 229.06 337.994 229.347 337.896C229.634 337.799 229.88 337.653 230.085 337.458C230.29 337.263 230.446 337.024 230.553 336.742L233.431 336.932C233.285 337.623 232.986 338.227 232.533 338.744C232.085 339.255 231.505 339.655 230.794 339.942C230.087 340.224 229.272 340.366 228.346 340.366ZM235.528 340.146V328.924H238.546V330.882H238.663C238.867 330.186 239.211 329.659 239.693 329.304C240.175 328.943 240.73 328.763 241.359 328.763C241.515 328.763 241.683 328.773 241.863 328.792C242.043 328.812 242.201 328.839 242.338 328.873V331.635C242.192 331.591 241.99 331.552 241.731 331.518C241.473 331.484 241.237 331.467 241.023 331.467C240.565 331.467 240.156 331.566 239.795 331.766C239.44 331.961 239.157 332.234 238.948 332.584C238.743 332.935 238.641 333.339 238.641 333.797V340.146H235.528ZM255.226 324.482L250.404 342.397H247.723L252.545 324.482H255.226ZM275.297 332.665C275.297 334.297 274.987 335.685 274.369 336.829C273.755 337.974 272.917 338.848 271.855 339.452C270.798 340.052 269.61 340.351 268.29 340.351C266.96 340.351 265.767 340.049 264.71 339.445C263.653 338.841 262.817 337.967 262.204 336.822C261.59 335.677 261.283 334.292 261.283 332.665C261.283 331.033 261.59 329.645 262.204 328.5C262.817 327.356 263.653 326.484 264.71 325.885C265.767 325.281 266.96 324.979 268.29 324.979C269.61 324.979 270.798 325.281 271.855 325.885C272.917 326.484 273.755 327.356 274.369 328.5C274.987 329.645 275.297 331.033 275.297 332.665ZM272.089 332.665C272.089 331.608 271.931 330.716 271.614 329.991C271.303 329.265 270.862 328.715 270.292 328.339C269.722 327.964 269.055 327.777 268.29 327.777C267.525 327.777 266.858 327.964 266.288 328.339C265.718 328.715 265.275 329.265 264.958 329.991C264.646 330.716 264.491 331.608 264.491 332.665C264.491 333.722 264.646 334.613 264.958 335.339C265.275 336.065 265.718 336.615 266.288 336.99C266.858 337.365 267.525 337.553 268.29 337.553C269.055 337.553 269.722 337.365 270.292 336.99C270.862 336.615 271.303 336.065 271.614 335.339C271.931 334.613 272.089 333.722 272.089 332.665ZM277.64 340.146V325.183H280.753V330.809H280.848C280.984 330.507 281.181 330.2 281.439 329.888C281.702 329.572 282.043 329.309 282.462 329.099C282.886 328.885 283.412 328.778 284.041 328.778C284.859 328.778 285.614 328.992 286.305 329.421C286.997 329.845 287.55 330.485 287.964 331.342C288.378 332.195 288.585 333.264 288.585 334.55C288.585 335.802 288.383 336.859 287.979 337.721C287.579 338.578 287.034 339.228 286.342 339.672C285.655 340.11 284.886 340.329 284.033 340.329C283.429 340.329 282.915 340.229 282.492 340.03C282.073 339.83 281.729 339.579 281.461 339.277C281.193 338.97 280.989 338.661 280.848 338.349H280.709V340.146H277.64ZM280.687 334.535C280.687 335.203 280.779 335.785 280.965 336.281C281.15 336.778 281.418 337.165 281.768 337.443C282.119 337.716 282.545 337.852 283.047 337.852C283.553 337.852 283.982 337.713 284.333 337.436C284.683 337.153 284.949 336.764 285.129 336.267C285.314 335.765 285.407 335.188 285.407 334.535C285.407 333.887 285.317 333.317 285.136 332.826C284.956 332.334 284.691 331.949 284.34 331.671C283.989 331.393 283.558 331.255 283.047 331.255C282.54 331.255 282.112 331.389 281.761 331.657C281.415 331.924 281.15 332.304 280.965 332.796C280.779 333.288 280.687 333.868 280.687 334.535ZM290.662 328.924H293.774V340.702C293.774 341.569 293.604 342.27 293.263 342.806C292.922 343.342 292.432 343.734 291.794 343.982C291.161 344.231 290.404 344.355 289.522 344.355C289.415 344.355 289.313 344.352 289.215 344.348C289.113 344.348 289.006 344.345 288.894 344.34V341.907C288.977 341.912 289.05 341.915 289.113 341.915C289.171 341.919 289.235 341.922 289.303 341.922C289.805 341.922 290.155 341.815 290.355 341.6C290.56 341.391 290.662 341.074 290.662 340.651V328.924ZM292.211 327.477C291.753 327.477 291.358 327.324 291.027 327.017C290.696 326.705 290.53 326.333 290.53 325.899C290.53 325.47 290.696 325.103 291.027 324.796C291.358 324.484 291.753 324.328 292.211 324.328C292.678 324.328 293.075 324.484 293.402 324.796C293.733 325.103 293.899 325.47 293.899 325.899C293.899 326.333 293.733 326.705 293.402 327.017C293.075 327.324 292.678 327.477 292.211 327.477ZM301.382 340.366C300.228 340.366 299.234 340.132 298.401 339.664C297.573 339.192 296.935 338.524 296.487 337.662C296.039 336.795 295.815 335.77 295.815 334.586C295.815 333.432 296.039 332.419 296.487 331.547C296.935 330.675 297.566 329.996 298.379 329.508C299.198 329.021 300.157 328.778 301.258 328.778C301.998 328.778 302.688 328.897 303.326 329.136C303.969 329.37 304.529 329.723 305.006 330.195C305.488 330.668 305.863 331.262 306.131 331.978C306.399 332.689 306.533 333.522 306.533 334.477V335.332H297.057V333.403H303.603C303.603 332.955 303.506 332.558 303.311 332.212C303.116 331.866 302.846 331.596 302.5 331.401C302.159 331.201 301.762 331.101 301.309 331.101C300.837 331.101 300.418 331.211 300.052 331.43C299.692 331.644 299.409 331.934 299.205 332.299C299 332.66 298.896 333.062 298.891 333.505V335.339C298.891 335.894 298.993 336.374 299.198 336.778C299.407 337.183 299.702 337.494 300.082 337.713C300.462 337.933 300.912 338.042 301.433 338.042C301.779 338.042 302.096 337.994 302.383 337.896C302.67 337.799 302.916 337.653 303.121 337.458C303.326 337.263 303.481 337.024 303.589 336.742L306.467 336.932C306.321 337.623 306.022 338.227 305.569 338.744C305.121 339.255 304.541 339.655 303.83 339.942C303.123 340.224 302.308 340.366 301.382 340.366ZM313.635 340.366C312.485 340.366 311.497 340.122 310.668 339.635C309.845 339.143 309.212 338.461 308.769 337.589C308.33 336.717 308.111 335.714 308.111 334.579C308.111 333.43 308.333 332.421 308.776 331.554C309.224 330.682 309.86 330.003 310.683 329.516C311.506 329.024 312.485 328.778 313.62 328.778C314.599 328.778 315.457 328.956 316.192 329.311C316.928 329.667 317.51 330.166 317.938 330.809C318.367 331.452 318.603 332.207 318.647 333.074H315.71C315.627 332.514 315.408 332.063 315.052 331.722C314.702 331.376 314.241 331.204 313.671 331.204C313.189 331.204 312.768 331.335 312.407 331.598C312.052 331.856 311.774 332.234 311.574 332.731C311.375 333.227 311.275 333.829 311.275 334.535C311.275 335.251 311.372 335.86 311.567 336.362C311.767 336.864 312.047 337.246 312.407 337.509C312.768 337.772 313.189 337.903 313.671 337.903C314.027 337.903 314.346 337.83 314.629 337.684C314.916 337.538 315.152 337.326 315.337 337.049C315.527 336.766 315.651 336.428 315.71 336.033H318.647C318.598 336.89 318.364 337.645 317.946 338.298C317.532 338.946 316.959 339.452 316.229 339.818C315.498 340.183 314.633 340.366 313.635 340.366ZM326.609 328.924V331.262H319.851V328.924H326.609ZM321.385 326.235H324.498V336.698C324.498 336.985 324.541 337.209 324.629 337.37C324.717 337.526 324.839 337.636 324.994 337.699C325.155 337.762 325.34 337.794 325.55 337.794C325.696 337.794 325.842 337.782 325.988 337.757C326.134 337.728 326.246 337.706 326.324 337.692L326.814 340.008C326.658 340.056 326.439 340.112 326.156 340.176C325.874 340.244 325.53 340.285 325.126 340.3C324.376 340.329 323.718 340.229 323.153 340C322.593 339.771 322.157 339.416 321.845 338.934C321.534 338.451 321.38 337.843 321.385 337.107V326.235Z" fill="#111111"/>
<path d="M669.22 300.507H493.4C485.136 300.507 478.437 307.206 478.437 315.47V351.008C478.437 359.273 485.136 365.972 493.4 365.972H669.22C677.484 365.972 684.183 359.273 684.183 351.008V315.47C684.183 307.206 677.484 300.507 669.22 300.507Z" fill="white" stroke="#111111" stroke-width="1.87042"/>
<path d="M580.543 325.037H583.707V334.754C583.707 335.845 583.446 336.8 582.925 337.618C582.409 338.436 581.685 339.075 580.755 339.532C579.825 339.985 578.741 340.212 577.504 340.212C576.262 340.212 575.175 339.985 574.245 339.532C573.315 339.075 572.591 338.436 572.075 337.618C571.559 336.8 571.301 335.845 571.301 334.754V325.037H574.464V334.484C574.464 335.054 574.588 335.56 574.837 336.003C575.09 336.447 575.446 336.795 575.904 337.048C576.361 337.302 576.895 337.428 577.504 337.428C578.117 337.428 578.651 337.302 579.104 337.048C579.562 336.795 579.915 336.447 580.163 336.003C580.416 335.56 580.543 335.054 580.543 334.484V325.037ZM589.473 325.037V340H586.31V325.037H589.473Z" fill="#111111"/>
<path d="M1015.25 300.507H839.428C831.164 300.507 824.465 307.206 824.465 315.47V351.008C824.465 359.273 831.164 365.972 839.428 365.972H1015.25C1023.51 365.972 1030.21 359.273 1030.21 351.008V315.47C1030.21 307.206 1023.51 300.507 1015.25 300.507Z" fill="white" stroke="#111111" stroke-width="1.87042"/>
<path d="M881.878 340.146V325.183H887.869C888.97 325.183 889.888 325.346 890.624 325.673C891.359 325.999 891.912 326.452 892.282 327.032C892.652 327.606 892.837 328.269 892.837 329.019C892.837 329.603 892.721 330.117 892.487 330.561C892.253 330.999 891.932 331.359 891.522 331.642C891.118 331.92 890.655 332.117 890.134 332.234V332.38C890.704 332.404 891.237 332.565 891.734 332.862C892.236 333.159 892.643 333.576 892.954 334.111C893.266 334.642 893.422 335.276 893.422 336.011C893.422 336.805 893.225 337.514 892.83 338.137C892.441 338.756 891.863 339.245 891.099 339.606C890.334 339.966 889.391 340.146 888.271 340.146H881.878ZM885.042 337.56H887.621C888.502 337.56 889.145 337.392 889.55 337.056C889.954 336.715 890.156 336.262 890.156 335.697C890.156 335.283 890.056 334.918 889.857 334.601C889.657 334.284 889.372 334.036 889.002 333.856C888.636 333.676 888.2 333.585 887.694 333.585H885.042V337.56ZM885.042 331.445H887.387C887.82 331.445 888.205 331.369 888.541 331.218C888.882 331.062 889.15 330.843 889.345 330.561C889.545 330.278 889.645 329.94 889.645 329.545C889.645 329.004 889.452 328.568 889.067 328.237C888.687 327.906 888.147 327.74 887.445 327.74H885.042V331.445ZM898.622 340.358C897.906 340.358 897.268 340.234 896.708 339.986C896.148 339.732 895.705 339.36 895.378 338.868C895.057 338.371 894.896 337.752 894.896 337.012C894.896 336.389 895.011 335.865 895.239 335.441C895.468 335.017 895.78 334.676 896.175 334.418C896.569 334.16 897.017 333.965 897.519 333.834C898.026 333.702 898.557 333.61 899.112 333.556C899.765 333.488 900.291 333.425 900.69 333.366C901.089 333.303 901.379 333.21 901.559 333.089C901.74 332.967 901.83 332.787 901.83 332.548V332.504C901.83 332.041 901.684 331.683 901.391 331.43C901.104 331.177 900.695 331.05 900.164 331.05C899.604 331.05 899.158 331.174 898.827 331.423C898.496 331.666 898.276 331.973 898.169 332.343L895.291 332.11C895.437 331.428 895.724 330.838 896.153 330.341C896.581 329.84 897.134 329.455 897.811 329.187C898.493 328.914 899.282 328.778 900.179 328.778C900.802 328.778 901.399 328.851 901.969 328.997C902.543 329.143 903.052 329.37 903.496 329.677C903.944 329.983 904.297 330.378 904.555 330.86C904.813 331.337 904.942 331.91 904.942 332.577V340.146H901.991V338.59H901.903C901.723 338.941 901.481 339.25 901.18 339.518C900.878 339.781 900.515 339.988 900.091 340.139C899.667 340.285 899.178 340.358 898.622 340.358ZM899.514 338.21C899.972 338.21 900.376 338.12 900.727 337.94C901.077 337.755 901.352 337.506 901.552 337.195C901.752 336.883 901.852 336.53 901.852 336.135V334.944C901.754 335.008 901.62 335.066 901.45 335.12C901.284 335.168 901.097 335.215 900.887 335.259C900.678 335.298 900.468 335.334 900.259 335.368C900.049 335.397 899.859 335.424 899.689 335.449C899.324 335.502 899.005 335.587 898.732 335.704C898.459 335.821 898.247 335.979 898.096 336.179C897.945 336.374 897.87 336.618 897.87 336.91C897.87 337.334 898.023 337.657 898.33 337.882C898.642 338.101 899.036 338.21 899.514 338.21ZM912.428 340.366C911.278 340.366 910.289 340.122 909.461 339.635C908.638 339.143 908.005 338.461 907.562 337.589C907.123 336.717 906.904 335.714 906.904 334.579C906.904 333.43 907.126 332.421 907.569 331.554C908.017 330.682 908.653 330.003 909.476 329.516C910.299 329.024 911.278 328.778 912.413 328.778C913.392 328.778 914.249 328.956 914.985 329.311C915.72 329.667 916.302 330.166 916.731 330.809C917.16 331.452 917.396 332.207 917.44 333.074H914.503C914.42 332.514 914.201 332.063 913.845 331.722C913.494 331.376 913.034 331.204 912.464 331.204C911.982 331.204 911.561 331.335 911.2 331.598C910.845 331.856 910.567 332.234 910.367 332.731C910.168 333.227 910.068 333.829 910.068 334.535C910.068 335.251 910.165 335.86 910.36 336.362C910.56 336.864 910.84 337.246 911.2 337.509C911.561 337.772 911.982 337.903 912.464 337.903C912.82 337.903 913.139 337.83 913.421 337.684C913.709 337.538 913.945 337.326 914.13 337.049C914.32 336.766 914.444 336.428 914.503 336.033H917.44C917.391 336.89 917.157 337.645 916.738 338.298C916.324 338.946 915.752 339.452 915.021 339.818C914.291 340.183 913.426 340.366 912.428 340.366ZM922.253 336.917L922.26 333.184H922.713L926.308 328.924H929.881L925.051 334.564H924.313L922.253 336.917ZM919.433 340.146V325.183H922.545V340.146H919.433ZM926.447 340.146L923.144 335.259L925.219 333.059L930.093 340.146H926.447ZM936.002 344.589C934.993 344.589 934.129 344.45 933.408 344.172C932.692 343.9 932.122 343.527 931.698 343.054C931.274 342.582 930.999 342.051 930.872 341.462L933.751 341.074C933.839 341.298 933.978 341.508 934.168 341.703C934.358 341.898 934.608 342.053 934.92 342.17C935.237 342.292 935.622 342.353 936.075 342.353C936.752 342.353 937.309 342.187 937.748 341.856C938.191 341.53 938.413 340.982 938.413 340.212V338.159H938.281C938.145 338.471 937.94 338.766 937.667 339.043C937.395 339.321 937.044 339.547 936.615 339.723C936.187 339.898 935.675 339.986 935.081 339.986C934.238 339.986 933.471 339.791 932.779 339.401C932.093 339.007 931.545 338.405 931.135 337.597C930.731 336.783 930.529 335.755 930.529 334.513C930.529 333.242 930.736 332.18 931.15 331.328C931.564 330.475 932.115 329.837 932.801 329.413C933.493 328.99 934.25 328.778 935.074 328.778C935.702 328.778 936.228 328.885 936.652 329.099C937.076 329.309 937.417 329.572 937.675 329.888C937.938 330.2 938.14 330.507 938.281 330.809H938.398V328.924H941.489V340.256C941.489 341.211 941.255 342.01 940.787 342.653C940.32 343.296 939.672 343.778 938.844 344.099C938.02 344.426 937.073 344.589 936.002 344.589ZM936.067 337.648C936.569 337.648 936.993 337.524 937.339 337.275C937.689 337.022 937.957 336.661 938.142 336.194C938.332 335.721 938.427 335.156 938.427 334.499C938.427 333.841 938.335 333.271 938.15 332.789C937.964 332.302 937.697 331.924 937.346 331.657C936.995 331.389 936.569 331.255 936.067 331.255C935.556 331.255 935.125 331.393 934.774 331.671C934.423 331.944 934.158 332.324 933.978 332.811C933.797 333.298 933.707 333.861 933.707 334.499C933.707 335.147 933.797 335.707 933.978 336.179C934.163 336.647 934.428 337.01 934.774 337.268C935.125 337.521 935.556 337.648 936.067 337.648ZM943.965 340.146V328.924H946.983V330.882H947.1C947.304 330.186 947.648 329.659 948.13 329.304C948.612 328.943 949.168 328.763 949.796 328.763C949.952 328.763 950.12 328.773 950.3 328.792C950.48 328.812 950.639 328.839 950.775 328.873V331.635C950.629 331.591 950.427 331.552 950.168 331.518C949.91 331.484 949.674 331.467 949.46 331.467C949.002 331.467 948.593 331.566 948.232 331.766C947.877 331.961 947.594 332.234 947.385 332.584C947.18 332.935 947.078 333.339 947.078 333.797V340.146H943.965ZM956.932 340.366C955.797 340.366 954.816 340.125 953.988 339.642C953.165 339.155 952.529 338.478 952.081 337.611C951.633 336.739 951.409 335.729 951.409 334.579C951.409 333.42 951.633 332.407 952.081 331.54C952.529 330.668 953.165 329.991 953.988 329.508C954.816 329.021 955.797 328.778 956.932 328.778C958.067 328.778 959.046 329.021 959.869 329.508C960.698 329.991 961.336 330.668 961.784 331.54C962.232 332.407 962.456 333.42 962.456 334.579C962.456 335.729 962.232 336.739 961.784 337.611C961.336 338.478 960.698 339.155 959.869 339.642C959.046 340.125 958.067 340.366 956.932 340.366ZM956.947 337.955C957.463 337.955 957.894 337.808 958.24 337.516C958.586 337.219 958.847 336.815 959.022 336.303C959.202 335.792 959.292 335.21 959.292 334.557C959.292 333.904 959.202 333.322 959.022 332.811C958.847 332.299 958.586 331.895 958.24 331.598C957.894 331.301 957.463 331.152 956.947 331.152C956.426 331.152 955.987 331.301 955.632 331.598C955.281 331.895 955.016 332.299 954.835 332.811C954.66 333.322 954.572 333.904 954.572 334.557C954.572 335.21 954.66 335.792 954.835 336.303C955.016 336.815 955.281 337.219 955.632 337.516C955.987 337.808 956.426 337.955 956.947 337.955ZM971.677 335.368V328.924H974.789V340.146H971.801V338.108H971.684C971.431 338.766 971.009 339.294 970.42 339.693C969.835 340.093 969.122 340.293 968.279 340.293C967.529 340.293 966.869 340.122 966.299 339.781C965.729 339.44 965.283 338.956 964.962 338.327C964.645 337.699 964.485 336.946 964.48 336.07V328.924H967.592V335.514C967.597 336.177 967.775 336.7 968.126 337.085C968.476 337.47 968.946 337.662 969.536 337.662C969.911 337.662 970.262 337.577 970.588 337.407C970.914 337.231 971.177 336.973 971.377 336.632C971.582 336.291 971.681 335.87 971.677 335.368ZM980.391 333.658V340.146H977.279V328.924H980.245V330.904H980.377C980.625 330.251 981.041 329.735 981.626 329.355C982.21 328.97 982.919 328.778 983.752 328.778C984.531 328.778 985.211 328.948 985.791 329.289C986.37 329.63 986.821 330.117 987.142 330.751C987.464 331.379 987.624 332.129 987.624 333.001V340.146H984.512V333.556C984.517 332.869 984.341 332.334 983.986 331.949C983.63 331.559 983.141 331.364 982.517 331.364C982.098 331.364 981.728 331.454 981.407 331.635C981.09 331.815 980.842 332.078 980.662 332.424C980.486 332.765 980.396 333.176 980.391 333.658ZM994.213 340.329C993.361 340.329 992.588 340.11 991.897 339.672C991.21 339.228 990.664 338.578 990.26 337.721C989.861 336.859 989.661 335.802 989.661 334.55C989.661 333.264 989.868 332.195 990.282 331.342C990.696 330.485 991.247 329.845 991.933 329.421C992.625 328.992 993.382 328.778 994.206 328.778C994.834 328.778 995.358 328.885 995.776 329.099C996.2 329.309 996.541 329.572 996.799 329.888C997.062 330.2 997.262 330.507 997.398 330.809H997.493V325.183H1000.6V340.146H997.53V338.349H997.398C997.252 338.661 997.045 338.97 996.777 339.277C996.514 339.579 996.171 339.83 995.747 340.03C995.328 340.229 994.817 340.329 994.213 340.329ZM995.199 337.852C995.701 337.852 996.125 337.716 996.471 337.443C996.821 337.165 997.089 336.778 997.274 336.281C997.464 335.785 997.559 335.203 997.559 334.535C997.559 333.868 997.467 333.288 997.282 332.796C997.096 332.304 996.829 331.924 996.478 331.657C996.127 331.389 995.701 331.255 995.199 331.255C994.688 331.255 994.257 331.393 993.906 331.671C993.555 331.949 993.29 332.334 993.11 332.826C992.929 333.317 992.839 333.887 992.839 334.535C992.839 335.188 992.929 335.765 993.11 336.267C993.295 336.764 993.56 337.153 993.906 337.436C994.257 337.713 994.688 337.852 995.199 337.852Z" fill="#111111"/>
<path d="M235.282 365.972V431.437M235.282 431.437H160.465M235.282 431.437H310.099" stroke="#111111" stroke-width="1.87042"/>
<path d="M229.67 459.493H109.963C101.699 459.493 95 466.192 95 474.456V500.642C95 508.906 101.699 515.606 109.963 515.606H229.67C237.934 515.606 244.634 508.906 244.634 500.642V474.456C244.634 466.192 237.934 459.493 229.67 459.493Z" fill="white" stroke="#111111" stroke-width="1.87042"/>
<path d="M129.215 494.197V481.954H133.352C134.312 481.954 135.097 482.128 135.707 482.474C136.321 482.817 136.775 483.281 137.07 483.867C137.365 484.453 137.512 485.107 137.512 485.828C137.512 486.549 137.365 487.205 137.07 487.795C136.779 488.385 136.329 488.855 135.719 489.206C135.109 489.552 134.328 489.726 133.376 489.726H130.41V488.411H133.328C133.985 488.411 134.513 488.297 134.912 488.07C135.31 487.843 135.599 487.536 135.779 487.149C135.962 486.759 136.054 486.318 136.054 485.828C136.054 485.338 135.962 484.899 135.779 484.513C135.599 484.126 135.308 483.823 134.906 483.604C134.503 483.381 133.969 483.27 133.304 483.27H130.697V494.197H129.215ZM139.709 494.197V485.015H141.072V486.402H141.168C141.335 485.948 141.638 485.579 142.076 485.296C142.515 485.013 143.009 484.872 143.559 484.872C143.663 484.872 143.792 484.874 143.947 484.878C144.103 484.882 144.22 484.888 144.3 484.896V486.33C144.252 486.318 144.143 486.3 143.971 486.276C143.804 486.249 143.627 486.235 143.439 486.235C142.993 486.235 142.594 486.328 142.244 486.516C141.897 486.699 141.622 486.954 141.419 487.281C141.22 487.604 141.12 487.972 141.12 488.387V494.197H139.709ZM149.423 494.388C148.594 494.388 147.867 494.191 147.241 493.797C146.62 493.402 146.133 492.85 145.783 492.141C145.436 491.431 145.263 490.602 145.263 489.654C145.263 488.697 145.436 487.863 145.783 487.149C146.133 486.436 146.62 485.882 147.241 485.487C147.867 485.093 148.594 484.896 149.423 484.896C150.252 484.896 150.978 485.093 151.599 485.487C152.225 485.882 152.711 486.436 153.058 487.149C153.409 487.863 153.584 488.697 153.584 489.654C153.584 490.602 153.409 491.431 153.058 492.141C152.711 492.85 152.225 493.402 151.599 493.797C150.978 494.191 150.252 494.388 149.423 494.388ZM149.423 493.121C150.053 493.121 150.571 492.96 150.978 492.637C151.384 492.314 151.685 491.89 151.88 491.364C152.075 490.838 152.173 490.268 152.173 489.654C152.173 489.04 152.075 488.468 151.88 487.938C151.685 487.408 151.384 486.98 150.978 486.653C150.571 486.326 150.053 486.163 149.423 486.163C148.794 486.163 148.275 486.326 147.869 486.653C147.462 486.98 147.162 487.408 146.966 487.938C146.771 488.468 146.673 489.04 146.673 489.654C146.673 490.268 146.771 490.838 146.966 491.364C147.162 491.89 147.462 492.314 147.869 492.637C148.275 492.96 148.794 493.121 149.423 493.121ZM159.731 485.015V486.211H154.972V485.015H159.731ZM156.359 482.815H157.77V491.567C157.77 491.965 157.828 492.264 157.943 492.464C158.063 492.659 158.214 492.79 158.398 492.858C158.585 492.922 158.782 492.954 158.989 492.954C159.145 492.954 159.272 492.946 159.372 492.93C159.472 492.91 159.551 492.894 159.611 492.882L159.898 494.149C159.802 494.185 159.669 494.221 159.498 494.257C159.326 494.297 159.109 494.317 158.846 494.317C158.447 494.317 158.057 494.231 157.674 494.06C157.296 493.888 156.981 493.627 156.73 493.277C156.483 492.926 156.359 492.483 156.359 491.949V482.815ZM165.484 494.388C164.655 494.388 163.928 494.191 163.302 493.797C162.681 493.402 162.195 492.85 161.844 492.141C161.497 491.431 161.324 490.602 161.324 489.654C161.324 488.697 161.497 487.863 161.844 487.149C162.195 486.436 162.681 485.882 163.302 485.487C163.928 485.093 164.655 484.896 165.484 484.896C166.313 484.896 167.039 485.093 167.66 485.487C168.286 485.882 168.772 486.436 169.119 487.149C169.47 487.863 169.645 488.697 169.645 489.654C169.645 490.602 169.47 491.431 169.119 492.141C168.772 492.85 168.286 493.402 167.66 493.797C167.039 494.191 166.313 494.388 165.484 494.388ZM165.484 493.121C166.114 493.121 166.632 492.96 167.039 492.637C167.445 492.314 167.746 491.89 167.941 491.364C168.137 490.838 168.234 490.268 168.234 489.654C168.234 489.04 168.137 488.468 167.941 487.938C167.746 487.408 167.445 486.98 167.039 486.653C166.632 486.326 166.114 486.163 165.484 486.163C164.855 486.163 164.337 486.326 163.93 486.653C163.524 486.98 163.223 487.408 163.027 487.938C162.832 488.468 162.735 489.04 162.735 489.654C162.735 490.268 162.832 490.838 163.027 491.364C163.223 491.89 163.524 492.314 163.93 492.637C164.337 492.96 164.855 493.121 165.484 493.121ZM170.646 483.27V481.954H179.828V483.27H175.979V494.197H174.496V483.27H170.646ZM181.782 497.64C181.543 497.64 181.329 497.62 181.142 497.581C180.955 497.545 180.825 497.509 180.753 497.473L181.112 496.23C181.455 496.317 181.758 496.349 182.021 496.325C182.284 496.301 182.517 496.184 182.72 495.973C182.927 495.765 183.117 495.429 183.288 494.962L183.551 494.245L180.156 485.015H181.686L184.221 492.332H184.316L186.851 485.015H188.381L184.484 495.536C184.308 496.01 184.091 496.403 183.832 496.714C183.573 497.029 183.272 497.262 182.929 497.413C182.591 497.565 182.208 497.64 181.782 497.64ZM190.243 497.64V485.015H191.606V486.474H191.774C191.877 486.314 192.021 486.111 192.204 485.864C192.391 485.613 192.659 485.39 193.005 485.194C193.356 484.995 193.83 484.896 194.428 484.896C195.201 484.896 195.883 485.089 196.472 485.475C197.062 485.862 197.523 486.41 197.853 487.119C198.184 487.829 198.349 488.666 198.349 489.63C198.349 490.602 198.184 491.445 197.853 492.159C197.523 492.868 197.064 493.418 196.478 493.809C195.893 494.195 195.217 494.388 194.452 494.388C193.862 494.388 193.39 494.291 193.035 494.096C192.68 493.896 192.407 493.671 192.216 493.42C192.025 493.165 191.877 492.954 191.774 492.786H191.654V497.64H190.243ZM191.63 489.606C191.63 490.3 191.732 490.911 191.935 491.441C192.138 491.967 192.435 492.38 192.826 492.679C193.216 492.974 193.695 493.121 194.261 493.121C194.85 493.121 195.343 492.966 195.737 492.655C196.136 492.34 196.435 491.918 196.634 491.388C196.837 490.853 196.939 490.26 196.939 489.606C196.939 488.96 196.839 488.379 196.64 487.861C196.445 487.338 196.148 486.926 195.749 486.623C195.355 486.316 194.858 486.163 194.261 486.163C193.687 486.163 193.204 486.308 192.814 486.599C192.423 486.886 192.128 487.289 191.929 487.807C191.73 488.321 191.63 488.921 191.63 489.606ZM204.351 494.388C203.467 494.388 202.703 494.193 202.062 493.803C201.424 493.408 200.932 492.858 200.585 492.153C200.242 491.443 200.071 490.618 200.071 489.678C200.071 488.737 200.242 487.908 200.585 487.191C200.932 486.47 201.414 485.908 202.032 485.505C202.654 485.099 203.379 484.896 204.208 484.896C204.686 484.896 205.158 484.975 205.625 485.135C206.091 485.294 206.515 485.553 206.898 485.912C207.28 486.266 207.585 486.737 207.813 487.323C208.04 487.908 208.153 488.63 208.153 489.487V490.084H201.075V488.865H206.719C206.719 488.347 206.615 487.884 206.408 487.478C206.204 487.071 205.914 486.751 205.535 486.516C205.16 486.28 204.718 486.163 204.208 486.163C203.646 486.163 203.16 486.302 202.749 486.581C202.343 486.856 202.03 487.215 201.811 487.657C201.591 488.1 201.482 488.574 201.482 489.08V489.893C201.482 490.586 201.601 491.174 201.841 491.657C202.084 492.135 202.42 492.499 202.851 492.75C203.281 492.998 203.781 493.121 204.351 493.121C204.722 493.121 205.057 493.069 205.356 492.966C205.658 492.858 205.92 492.699 206.139 492.487C206.358 492.272 206.527 492.005 206.647 491.686L208.01 492.069C207.866 492.531 207.625 492.938 207.286 493.289C206.948 493.635 206.529 493.906 206.031 494.101C205.533 494.293 204.973 494.388 204.351 494.388Z" fill="black"/>
<path d="M398.008 459.493H278.301C270.037 459.493 263.338 466.192 263.338 474.456V500.642C263.338 508.906 270.037 515.606 278.301 515.606H398.008C406.272 515.606 412.972 508.906 412.972 500.642V474.456C412.972 466.192 406.272 459.493 398.008 459.493Z" fill="white" stroke="#111111" stroke-width="1.87042"/>
<path d="M302.731 494.197H301.177L305.672 481.954H307.203L311.698 494.197H310.144L306.485 483.891H306.39L302.731 494.197ZM303.305 489.415H309.57V490.73H303.305V489.415ZM314.824 488.674V494.197H313.414V485.015H314.777V486.45H314.896C315.111 485.983 315.438 485.609 315.877 485.326C316.315 485.039 316.881 484.896 317.574 484.896C318.196 484.896 318.74 485.023 319.206 485.278C319.673 485.529 320.035 485.912 320.294 486.426C320.553 486.936 320.683 487.582 320.683 488.363V494.197H319.272V488.458C319.272 487.737 319.085 487.175 318.71 486.773C318.335 486.366 317.821 486.163 317.168 486.163C316.717 486.163 316.315 486.26 315.96 486.456C315.61 486.651 315.333 486.936 315.129 487.311C314.926 487.685 314.824 488.14 314.824 488.674ZM323.261 494.197V485.015H324.672V494.197H323.261ZM323.978 483.485C323.703 483.485 323.466 483.391 323.267 483.204C323.071 483.016 322.974 482.791 322.974 482.528C322.974 482.265 323.071 482.04 323.267 481.853C323.466 481.665 323.703 481.572 323.978 481.572C324.253 481.572 324.488 481.665 324.684 481.853C324.883 482.04 324.982 482.265 324.982 482.528C324.982 482.791 324.883 483.016 324.684 483.204C324.488 483.391 324.253 483.485 323.978 483.485ZM327.256 494.197V485.015H328.618V486.45H328.738C328.929 485.96 329.238 485.579 329.665 485.308C330.091 485.033 330.603 484.896 331.201 484.896C331.807 484.896 332.311 485.033 332.713 485.308C333.12 485.579 333.437 485.96 333.664 486.45H333.759C333.995 485.976 334.347 485.599 334.818 485.32C335.288 485.037 335.852 484.896 336.509 484.896C337.33 484.896 338.002 485.153 338.524 485.667C339.046 486.177 339.307 486.972 339.307 488.052V494.197H337.896V488.052C337.896 487.374 337.711 486.89 337.34 486.599C336.97 486.308 336.533 486.163 336.031 486.163C335.385 486.163 334.885 486.358 334.531 486.749C334.176 487.135 333.999 487.625 333.999 488.219V494.197H332.564V487.908C332.564 487.386 332.395 486.966 332.056 486.647C331.717 486.324 331.281 486.163 330.747 486.163C330.38 486.163 330.037 486.26 329.718 486.456C329.404 486.651 329.149 486.922 328.953 487.269C328.762 487.611 328.666 488.008 328.666 488.458V494.197H327.256ZM344.588 494.412C344.007 494.412 343.479 494.303 343.004 494.084C342.53 493.86 342.153 493.54 341.875 493.121C341.596 492.699 341.456 492.189 341.456 491.591C341.456 491.065 341.56 490.638 341.767 490.311C341.974 489.981 342.251 489.722 342.598 489.534C342.945 489.347 343.327 489.208 343.746 489.116C344.168 489.02 344.592 488.945 345.019 488.889C345.577 488.817 346.029 488.763 346.376 488.727C346.727 488.688 346.982 488.622 347.141 488.53C347.304 488.438 347.386 488.279 347.386 488.052V488.004C347.386 487.414 347.225 486.956 346.902 486.629C346.583 486.302 346.099 486.139 345.449 486.139C344.776 486.139 344.248 486.286 343.865 486.581C343.483 486.876 343.214 487.191 343.058 487.526L341.719 487.048C341.958 486.49 342.277 486.055 342.676 485.744C343.078 485.43 343.516 485.21 343.991 485.087C344.469 484.959 344.939 484.896 345.401 484.896C345.696 484.896 346.035 484.931 346.418 485.003C346.804 485.071 347.177 485.212 347.536 485.428C347.898 485.643 348.199 485.968 348.438 486.402C348.677 486.836 348.797 487.418 348.797 488.147V494.197H347.386V492.954H347.314C347.219 493.153 347.059 493.366 346.836 493.593C346.613 493.821 346.316 494.014 345.945 494.173C345.575 494.333 345.123 494.412 344.588 494.412ZM344.804 493.145C345.362 493.145 345.832 493.035 346.214 492.816C346.601 492.597 346.892 492.314 347.087 491.967C347.287 491.621 347.386 491.256 347.386 490.873V489.582C347.326 489.654 347.195 489.72 346.992 489.779C346.792 489.835 346.561 489.885 346.298 489.929C346.039 489.969 345.786 490.005 345.539 490.037C345.296 490.064 345.099 490.088 344.947 490.108C344.581 490.156 344.238 490.234 343.919 490.341C343.604 490.445 343.349 490.602 343.154 490.814C342.962 491.021 342.867 491.304 342.867 491.663C342.867 492.153 343.048 492.523 343.411 492.774C343.777 493.021 344.242 493.145 344.804 493.145ZM355.365 485.015V486.211H350.607V485.015H355.365ZM351.994 482.815H353.404V491.567C353.404 491.965 353.462 492.264 353.578 492.464C353.697 492.659 353.849 492.79 354.032 492.858C354.219 492.922 354.417 492.954 354.624 492.954C354.779 492.954 354.907 492.946 355.006 492.93C355.106 492.91 355.186 492.894 355.246 492.882L355.533 494.149C355.437 494.185 355.303 494.221 355.132 494.257C354.961 494.297 354.743 494.317 354.48 494.317C354.082 494.317 353.691 494.231 353.309 494.06C352.93 493.888 352.615 493.627 352.364 493.277C352.117 492.926 351.994 492.483 351.994 491.949V482.815ZM357.487 494.197V485.015H358.898V494.197H357.487ZM358.205 483.485C357.93 483.485 357.693 483.391 357.493 483.204C357.298 483.016 357.2 482.791 357.2 482.528C357.2 482.265 357.298 482.04 357.493 481.853C357.693 481.665 357.93 481.572 358.205 481.572C358.48 481.572 358.715 481.665 358.91 481.853C359.109 482.04 359.209 482.265 359.209 482.528C359.209 482.791 359.109 483.016 358.91 483.204C358.715 483.391 358.48 483.485 358.205 483.485ZM365.212 494.388C364.383 494.388 363.656 494.191 363.03 493.797C362.409 493.402 361.922 492.85 361.572 492.141C361.225 491.431 361.052 490.602 361.052 489.654C361.052 488.697 361.225 487.863 361.572 487.149C361.922 486.436 362.409 485.882 363.03 485.487C363.656 485.093 364.383 484.896 365.212 484.896C366.041 484.896 366.767 485.093 367.388 485.487C368.014 485.882 368.5 486.436 368.847 487.149C369.198 487.863 369.373 488.697 369.373 489.654C369.373 490.602 369.198 491.431 368.847 492.141C368.5 492.85 368.014 493.402 367.388 493.797C366.767 494.191 366.041 494.388 365.212 494.388ZM365.212 493.121C365.842 493.121 366.36 492.96 366.767 492.637C367.173 492.314 367.474 491.89 367.669 491.364C367.864 490.838 367.962 490.268 367.962 489.654C367.962 489.04 367.864 488.468 367.669 487.938C367.474 487.408 367.173 486.98 366.767 486.653C366.36 486.326 365.842 486.163 365.212 486.163C364.583 486.163 364.065 486.326 363.658 486.653C363.252 486.98 362.951 487.408 362.755 487.938C362.56 488.468 362.462 489.04 362.462 489.654C362.462 490.268 362.56 490.838 362.755 491.364C362.951 491.89 363.252 492.314 363.658 492.637C364.065 492.96 364.583 493.121 365.212 493.121ZM372.937 488.674V494.197H371.526V485.015H372.889V486.45H373.009C373.224 485.983 373.551 485.609 373.989 485.326C374.428 485.039 374.994 484.896 375.687 484.896C376.309 484.896 376.853 485.023 377.319 485.278C377.785 485.529 378.148 485.912 378.407 486.426C378.666 486.936 378.796 487.582 378.796 488.363V494.197H377.385V488.458C377.385 487.737 377.197 487.175 376.823 486.773C376.448 486.366 375.934 486.163 375.281 486.163C374.83 486.163 374.428 486.26 374.073 486.456C373.722 486.651 373.445 486.936 373.242 487.311C373.039 487.685 372.937 488.14 372.937 488.674Z" fill="black"/>
<path d="M581.31 365.972L581 459" stroke="#111111" stroke-width="1.87042"/>
<path d="M659.868 459.493H502.752C494.488 459.493 487.789 466.192 487.789 474.456V500.642C487.789 508.906 494.488 515.606 502.752 515.606H659.868C668.132 515.606 674.831 508.906 674.831 500.642V474.456C674.831 466.192 668.132 459.493 659.868 459.493Z" fill="white" stroke="#111111" stroke-width="1.87042"/>
<path d="M555.235 485.78H553.753C553.665 485.354 553.512 484.979 553.293 484.656C553.077 484.334 552.814 484.063 552.504 483.843C552.197 483.62 551.856 483.453 551.481 483.341C551.107 483.23 550.716 483.174 550.31 483.174C549.568 483.174 548.897 483.361 548.295 483.736C547.697 484.11 547.221 484.662 546.866 485.392C546.516 486.121 546.34 487.016 546.34 488.076C546.34 489.136 546.516 490.031 546.866 490.76C547.221 491.489 547.697 492.041 548.295 492.416C548.897 492.79 549.568 492.978 550.31 492.978C550.716 492.978 551.107 492.922 551.481 492.81C551.856 492.699 552.197 492.533 552.504 492.314C552.814 492.091 553.077 491.818 553.293 491.495C553.512 491.168 553.665 490.794 553.753 490.371H555.235C555.124 490.997 554.921 491.557 554.626 492.051C554.331 492.545 553.964 492.966 553.526 493.312C553.087 493.655 552.595 493.916 552.049 494.096C551.507 494.275 550.927 494.365 550.31 494.365C549.266 494.365 548.337 494.109 547.524 493.599C546.711 493.089 546.071 492.364 545.605 491.423C545.139 490.483 544.906 489.367 544.906 488.076C544.906 486.785 545.139 485.669 545.605 484.728C546.071 483.788 546.711 483.062 547.524 482.552C548.337 482.042 549.266 481.787 550.31 481.787C550.927 481.787 551.507 481.877 552.049 482.056C552.595 482.235 553.087 482.498 553.526 482.845C553.964 483.188 554.331 483.606 554.626 484.1C554.921 484.591 555.124 485.151 555.235 485.78ZM561.17 494.388C560.341 494.388 559.614 494.191 558.988 493.797C558.366 493.402 557.88 492.85 557.53 492.141C557.183 491.431 557.009 490.602 557.009 489.654C557.009 488.697 557.183 487.863 557.53 487.149C557.88 486.436 558.366 485.882 558.988 485.487C559.614 485.093 560.341 484.896 561.17 484.896C561.999 484.896 562.724 485.093 563.346 485.487C563.972 485.882 564.458 486.436 564.805 487.149C565.155 487.863 565.331 488.697 565.331 489.654C565.331 490.602 565.155 491.431 564.805 492.141C564.458 492.85 563.972 493.402 563.346 493.797C562.724 494.191 561.999 494.388 561.17 494.388ZM561.17 493.121C561.8 493.121 562.318 492.96 562.724 492.637C563.131 492.314 563.432 491.89 563.627 491.364C563.822 490.838 563.92 490.268 563.92 489.654C563.92 489.04 563.822 488.468 563.627 487.938C563.432 487.408 563.131 486.98 562.724 486.653C562.318 486.326 561.8 486.163 561.17 486.163C560.54 486.163 560.022 486.326 559.616 486.653C559.209 486.98 558.908 487.408 558.713 487.938C558.518 488.468 558.42 489.04 558.42 489.654C558.42 490.268 558.518 490.838 558.713 491.364C558.908 491.89 559.209 492.314 559.616 492.637C560.022 492.96 560.54 493.121 561.17 493.121ZM567.484 494.197V485.015H568.847V486.45H568.967C569.158 485.96 569.467 485.579 569.893 485.308C570.32 485.033 570.832 484.896 571.43 484.896C572.035 484.896 572.54 485.033 572.942 485.308C573.349 485.579 573.665 485.96 573.893 486.45H573.988C574.223 485.976 574.576 485.599 575.046 485.32C575.517 485.037 576.08 484.896 576.738 484.896C577.559 484.896 578.231 485.153 578.753 485.667C579.275 486.177 579.536 486.972 579.536 488.052V494.197H578.125V488.052C578.125 487.374 577.94 486.89 577.569 486.599C577.198 486.308 576.762 486.163 576.26 486.163C575.614 486.163 575.114 486.358 574.759 486.749C574.405 487.135 574.227 487.625 574.227 488.219V494.197H572.793V487.908C572.793 487.386 572.623 486.966 572.284 486.647C571.946 486.324 571.509 486.163 570.975 486.163C570.609 486.163 570.266 486.26 569.947 486.456C569.632 486.651 569.377 486.922 569.182 487.269C568.991 487.611 568.895 488.008 568.895 488.458V494.197H567.484ZM582.115 497.64V485.015H583.478V486.474H583.646C583.749 486.314 583.893 486.111 584.076 485.864C584.263 485.613 584.53 485.39 584.877 485.194C585.228 484.995 585.702 484.896 586.3 484.896C587.073 484.896 587.754 485.089 588.344 485.475C588.934 485.862 589.394 486.41 589.725 487.119C590.056 487.829 590.221 488.666 590.221 489.63C590.221 490.602 590.056 491.445 589.725 492.159C589.394 492.868 588.936 493.418 588.35 493.809C587.764 494.195 587.089 494.388 586.324 494.388C585.734 494.388 585.262 494.291 584.907 494.096C584.552 493.896 584.279 493.671 584.088 493.42C583.897 493.165 583.749 492.954 583.646 492.786H583.526V497.64H582.115ZM583.502 489.606C583.502 490.3 583.604 490.911 583.807 491.441C584.01 491.967 584.307 492.38 584.698 492.679C585.088 492.974 585.566 493.121 586.132 493.121C586.722 493.121 587.214 492.966 587.609 492.655C588.007 492.34 588.306 491.918 588.506 491.388C588.709 490.853 588.81 490.26 588.81 489.606C588.81 488.96 588.711 488.379 588.512 487.861C588.316 487.338 588.019 486.926 587.621 486.623C587.226 486.316 586.73 486.163 586.132 486.163C585.558 486.163 585.076 486.308 584.686 486.599C584.295 486.886 584 487.289 583.801 487.807C583.602 488.321 583.502 488.921 583.502 489.606ZM596.103 494.388C595.275 494.388 594.547 494.191 593.922 493.797C593.3 493.402 592.814 492.85 592.463 492.141C592.116 491.431 591.943 490.602 591.943 489.654C591.943 488.697 592.116 487.863 592.463 487.149C592.814 486.436 593.3 485.882 593.922 485.487C594.547 485.093 595.275 484.896 596.103 484.896C596.932 484.896 597.658 485.093 598.279 485.487C598.905 485.882 599.391 486.436 599.738 487.149C600.089 487.863 600.264 488.697 600.264 489.654C600.264 490.602 600.089 491.431 599.738 492.141C599.391 492.85 598.905 493.402 598.279 493.797C597.658 494.191 596.932 494.388 596.103 494.388ZM596.103 493.121C596.733 493.121 597.251 492.96 597.658 492.637C598.064 492.314 598.365 491.89 598.56 491.364C598.756 490.838 598.853 490.268 598.853 489.654C598.853 489.04 598.756 488.468 598.56 487.938C598.365 487.408 598.064 486.98 597.658 486.653C597.251 486.326 596.733 486.163 596.103 486.163C595.474 486.163 594.956 486.326 594.549 486.653C594.143 486.98 593.842 487.408 593.647 487.938C593.451 488.468 593.354 489.04 593.354 489.654C593.354 490.268 593.451 490.838 593.647 491.364C593.842 491.89 594.143 492.314 594.549 492.637C594.956 492.96 595.474 493.121 596.103 493.121ZM603.828 488.674V494.197H602.418V485.015H603.781V486.45H603.9C604.115 485.983 604.442 485.609 604.881 485.326C605.319 485.039 605.885 484.896 606.578 484.896C607.2 484.896 607.744 485.023 608.21 485.278C608.677 485.529 609.039 485.912 609.298 486.426C609.557 486.936 609.687 487.582 609.687 488.363V494.197H608.276V488.458C608.276 487.737 608.089 487.175 607.714 486.773C607.339 486.366 606.825 486.163 606.172 486.163C605.721 486.163 605.319 486.26 604.964 486.456C604.614 486.651 604.337 486.936 604.133 487.311C603.93 487.685 603.828 488.14 603.828 488.674ZM616.115 494.388C615.23 494.388 614.467 494.193 613.825 493.803C613.187 493.408 612.695 492.858 612.348 492.153C612.006 491.443 611.834 490.618 611.834 489.678C611.834 488.737 612.006 487.908 612.348 487.191C612.695 486.47 613.177 485.908 613.795 485.505C614.417 485.099 615.142 484.896 615.971 484.896C616.449 484.896 616.922 484.975 617.388 485.135C617.854 485.294 618.279 485.553 618.661 485.912C619.044 486.266 619.349 486.737 619.576 487.323C619.803 487.908 619.917 488.63 619.917 489.487V490.084H612.839V488.865H618.482C618.482 488.347 618.378 487.884 618.171 487.478C617.968 487.071 617.677 486.751 617.298 486.516C616.924 486.28 616.481 486.163 615.971 486.163C615.409 486.163 614.923 486.302 614.512 486.581C614.106 486.856 613.793 487.215 613.574 487.657C613.355 488.1 613.245 488.574 613.245 489.08V489.893C613.245 490.586 613.365 491.174 613.604 491.657C613.847 492.135 614.184 492.499 614.614 492.75C615.045 492.998 615.545 493.121 616.115 493.121C616.485 493.121 616.82 493.069 617.119 492.966C617.422 492.858 617.683 492.699 617.902 492.487C618.121 492.272 618.291 492.005 618.41 491.686L619.773 492.069C619.63 492.531 619.388 492.938 619.05 493.289C618.711 493.635 618.293 493.906 617.794 494.101C617.296 494.293 616.736 494.388 616.115 494.388ZM623.473 488.674V494.197H622.063V485.015H623.426V486.45H623.545C623.76 485.983 624.087 485.609 624.525 485.326C624.964 485.039 625.53 484.896 626.223 484.896C626.845 484.896 627.389 485.023 627.855 485.278C628.321 485.529 628.684 485.912 628.943 486.426C629.202 486.936 629.332 487.582 629.332 488.363V494.197H627.921V488.458C627.921 487.737 627.734 487.175 627.359 486.773C626.984 486.366 626.47 486.163 625.817 486.163C625.366 486.163 624.964 486.26 624.609 486.456C624.258 486.651 623.981 486.936 623.778 487.311C623.575 487.685 623.473 488.14 623.473 488.674ZM635.903 485.015V486.211H631.145V485.015H635.903ZM632.531 482.815H633.942V491.567C633.942 491.965 634 492.264 634.116 492.464C634.235 492.659 634.387 492.79 634.57 492.858C634.757 492.922 634.954 492.954 635.162 492.954C635.317 492.954 635.445 492.946 635.544 492.93C635.644 492.91 635.724 492.894 635.783 492.882L636.07 494.149C635.975 494.185 635.841 494.221 635.67 494.257C635.498 494.297 635.281 494.317 635.018 494.317C634.62 494.317 634.229 494.231 633.847 494.06C633.468 493.888 633.153 493.627 632.902 493.277C632.655 492.926 632.531 492.483 632.531 491.949V482.815Z" fill="black"/>
<path d="M927.338 365.972V431.437M927.338 431.437H815.113M927.338 431.437H1039.56" stroke="#111111" stroke-width="1.87042"/>
<path d="M884.318 459.493H764.611C756.347 459.493 749.648 466.192 749.648 474.456V500.642C749.648 508.906 756.347 515.606 764.611 515.606H884.318C892.582 515.606 899.282 508.906 899.282 500.642V474.456C899.282 466.192 892.582 459.493 884.318 459.493Z" fill="white" stroke="#111111" stroke-width="1.87042"/>
<path d="M795.234 485.015C795.162 484.409 794.871 483.939 794.361 483.604C793.851 483.27 793.226 483.102 792.484 483.102C791.942 483.102 791.468 483.19 791.062 483.365C790.659 483.541 790.344 483.782 790.117 484.088C789.894 484.395 789.782 484.744 789.782 485.135C789.782 485.461 789.86 485.742 790.015 485.978C790.175 486.209 790.378 486.402 790.625 486.557C790.872 486.709 791.131 486.834 791.402 486.934C791.673 487.03 791.922 487.107 792.15 487.167L793.393 487.502C793.712 487.586 794.066 487.701 794.457 487.849C794.852 487.996 795.228 488.197 795.587 488.452C795.949 488.703 796.248 489.026 796.484 489.421C796.719 489.815 796.836 490.3 796.836 490.873C796.836 491.535 796.663 492.133 796.316 492.667C795.973 493.201 795.471 493.625 794.81 493.94C794.152 494.255 793.353 494.412 792.413 494.412C791.536 494.412 790.777 494.271 790.135 493.988C789.497 493.705 788.995 493.31 788.629 492.804C788.266 492.298 788.061 491.71 788.013 491.041H789.543C789.583 491.503 789.738 491.886 790.009 492.189C790.284 492.487 790.631 492.711 791.05 492.858C791.472 493.002 791.926 493.073 792.413 493.073C792.978 493.073 793.487 492.982 793.937 492.798C794.387 492.611 794.744 492.352 795.007 492.021C795.27 491.686 795.402 491.296 795.402 490.85C795.402 490.443 795.288 490.112 795.061 489.857C794.834 489.602 794.535 489.395 794.164 489.235C793.793 489.076 793.393 488.937 792.963 488.817L791.456 488.387C790.5 488.112 789.742 487.719 789.184 487.209C788.627 486.699 788.348 486.031 788.348 485.206C788.348 484.521 788.533 483.923 788.904 483.413C789.278 482.899 789.78 482.5 790.41 482.217C791.044 481.93 791.751 481.787 792.532 481.787C793.321 481.787 794.023 481.928 794.636 482.211C795.25 482.49 795.736 482.873 796.095 483.359C796.458 483.845 796.649 484.397 796.669 485.015H795.234ZM802.813 494.388C801.952 494.388 801.211 494.185 800.589 493.779C799.967 493.372 799.489 492.812 799.154 492.099C798.819 491.386 798.652 490.571 798.652 489.654C798.652 488.721 798.823 487.898 799.166 487.185C799.513 486.468 799.995 485.908 800.613 485.505C801.234 485.099 801.96 484.896 802.789 484.896C803.434 484.896 804.016 485.015 804.534 485.254C805.052 485.493 805.477 485.828 805.808 486.258C806.138 486.689 806.344 487.191 806.423 487.765H805.012C804.905 487.346 804.666 486.976 804.295 486.653C803.928 486.326 803.434 486.163 802.813 486.163C802.263 486.163 801.78 486.306 801.366 486.593C800.955 486.876 800.635 487.277 800.404 487.795C800.176 488.309 800.063 488.913 800.063 489.606C800.063 490.315 800.174 490.933 800.398 491.459C800.625 491.985 800.944 492.394 801.354 492.685C801.768 492.976 802.255 493.121 802.813 493.121C803.179 493.121 803.512 493.057 803.811 492.93C804.11 492.802 804.363 492.619 804.57 492.38C804.777 492.141 804.925 491.854 805.012 491.519H806.423C806.344 492.061 806.146 492.549 805.831 492.984C805.521 493.414 805.108 493.757 804.594 494.012C804.084 494.263 803.49 494.388 802.813 494.388ZM812.335 494.388C811.451 494.388 810.688 494.193 810.046 493.803C809.408 493.408 808.916 492.858 808.569 492.153C808.227 491.443 808.055 490.618 808.055 489.678C808.055 488.737 808.227 487.908 808.569 487.191C808.916 486.47 809.398 485.908 810.016 485.505C810.638 485.099 811.363 484.896 812.192 484.896C812.67 484.896 813.142 484.975 813.609 485.135C814.075 485.294 814.499 485.553 814.882 485.912C815.265 486.266 815.569 486.737 815.797 487.323C816.024 487.908 816.137 488.63 816.137 489.487V490.084H809.06V488.865H814.703C814.703 488.347 814.599 487.884 814.392 487.478C814.189 487.071 813.898 486.751 813.519 486.516C813.144 486.28 812.702 486.163 812.192 486.163C811.63 486.163 811.144 486.302 810.733 486.581C810.327 486.856 810.014 487.215 809.795 487.657C809.576 488.1 809.466 488.574 809.466 489.08V489.893C809.466 490.586 809.586 491.174 809.825 491.657C810.068 492.135 810.405 492.499 810.835 492.75C811.265 492.998 811.766 493.121 812.335 493.121C812.706 493.121 813.041 493.069 813.34 492.966C813.643 492.858 813.904 492.699 814.123 492.487C814.342 492.272 814.511 492.005 814.631 491.686L815.994 492.069C815.85 492.531 815.609 492.938 815.271 493.289C814.932 493.635 814.513 493.906 814.015 494.101C813.517 494.293 812.957 494.388 812.335 494.388ZM819.694 488.674V494.197H818.283V485.015H819.646V486.45H819.766C819.981 485.983 820.308 485.609 820.746 485.326C821.185 485.039 821.751 484.896 822.444 484.896C823.066 484.896 823.61 485.023 824.076 485.278C824.542 485.529 824.905 485.912 825.164 486.426C825.423 486.936 825.553 487.582 825.553 488.363V494.197H824.142V488.458C824.142 487.737 823.955 487.175 823.58 486.773C823.205 486.366 822.691 486.163 822.038 486.163C821.587 486.163 821.185 486.26 820.83 486.456C820.479 486.651 820.202 486.936 819.999 487.311C819.796 487.685 819.694 488.14 819.694 488.674ZM831.98 494.388C831.096 494.388 830.332 494.193 829.691 493.803C829.053 493.408 828.561 492.858 828.214 492.153C827.872 491.443 827.7 490.618 827.7 489.678C827.7 488.737 827.872 487.908 828.214 487.191C828.561 486.47 829.043 485.908 829.661 485.505C830.283 485.099 831.008 484.896 831.837 484.896C832.315 484.896 832.787 484.975 833.254 485.135C833.72 485.294 834.144 485.553 834.527 485.912C834.91 486.266 835.214 486.737 835.442 487.323C835.669 487.908 835.782 488.63 835.782 489.487V490.084H828.704V488.865H834.348C834.348 488.347 834.244 487.884 834.037 487.478C833.834 487.071 833.543 486.751 833.164 486.516C832.789 486.28 832.347 486.163 831.837 486.163C831.275 486.163 830.789 486.302 830.378 486.581C829.972 486.856 829.659 487.215 829.44 487.657C829.221 488.1 829.111 488.574 829.111 489.08V489.893C829.111 490.586 829.231 491.174 829.47 491.657C829.713 492.135 830.049 492.499 830.48 492.75C830.91 492.998 831.41 493.121 831.98 493.121C832.351 493.121 832.686 493.069 832.985 492.966C833.288 492.858 833.549 492.699 833.768 492.487C833.987 492.272 834.156 492.005 834.276 491.686L835.639 492.069C835.495 492.531 835.254 492.938 834.916 493.289C834.577 493.635 834.158 493.906 833.66 494.101C833.162 494.293 832.602 494.388 831.98 494.388ZM837.928 494.197V485.015H839.291V486.402H839.387C839.554 485.948 839.857 485.579 840.296 485.296C840.734 485.013 841.228 484.872 841.778 484.872C841.882 484.872 842.011 484.874 842.167 484.878C842.322 484.882 842.44 484.888 842.519 484.896V486.33C842.472 486.318 842.362 486.3 842.191 486.276C842.023 486.249 841.846 486.235 841.659 486.235C841.212 486.235 840.814 486.328 840.463 486.516C840.116 486.699 839.841 486.954 839.638 487.281C839.439 487.604 839.339 487.972 839.339 488.387V494.197H837.928ZM845.38 497.64C845.141 497.64 844.928 497.62 844.74 497.581C844.553 497.545 844.423 497.509 844.352 497.473L844.71 496.23C845.053 496.317 845.356 496.349 845.619 496.325C845.882 496.301 846.115 496.184 846.318 495.973C846.526 495.765 846.715 495.429 846.886 494.962L847.149 494.245L843.754 485.015H845.284L847.819 492.332H847.914L850.449 485.015H851.979L848.082 495.536C847.907 496.01 847.689 496.403 847.43 496.714C847.171 497.029 846.87 497.262 846.528 497.413C846.189 497.565 845.806 497.64 845.38 497.64Z" fill="black"/>
<path d="M1090.06 459.493H970.358C962.094 459.493 955.394 466.192 955.394 474.456V500.642C955.394 508.906 962.094 515.606 970.358 515.606H1090.06C1098.33 515.606 1105.03 508.906 1105.03 500.642V474.456C1105.03 466.192 1098.33 459.493 1090.06 459.493Z" fill="white" stroke="#111111" stroke-width="1.87042"/>
<path d="M998.292 483.27V481.954H1007.47V483.27H1003.62V494.197H1002.14V483.27H998.292ZM1009.57 494.197V485.015H1010.98V494.197H1009.57ZM1010.29 483.485C1010.01 483.485 1009.78 483.391 1009.58 483.204C1009.38 483.016 1009.28 482.791 1009.28 482.528C1009.28 482.265 1009.38 482.04 1009.58 481.853C1009.78 481.665 1010.01 481.572 1010.29 481.572C1010.56 481.572 1010.8 481.665 1010.99 481.853C1011.19 482.04 1011.29 482.265 1011.29 482.528C1011.29 482.791 1011.19 483.016 1010.99 483.204C1010.8 483.391 1010.56 483.485 1010.29 483.485ZM1014.98 481.954V494.197H1013.57V481.954H1014.98ZM1021.41 494.388C1020.53 494.388 1019.76 494.193 1019.12 493.803C1018.48 493.408 1017.99 492.858 1017.64 492.153C1017.3 491.443 1017.13 490.618 1017.13 489.678C1017.13 488.737 1017.3 487.908 1017.64 487.191C1017.99 486.47 1018.47 485.908 1019.09 485.505C1019.71 485.099 1020.44 484.896 1021.27 484.896C1021.74 484.896 1022.22 484.975 1022.68 485.135C1023.15 485.294 1023.57 485.553 1023.96 485.912C1024.34 486.266 1024.64 486.737 1024.87 487.323C1025.1 487.908 1025.21 488.63 1025.21 489.487V490.084H1018.13V488.865H1023.78C1023.78 488.347 1023.67 487.884 1023.47 487.478C1023.26 487.071 1022.97 486.751 1022.59 486.516C1022.22 486.28 1021.78 486.163 1021.27 486.163C1020.7 486.163 1020.22 486.302 1019.81 486.581C1019.4 486.856 1019.09 487.215 1018.87 487.657C1018.65 488.1 1018.54 488.574 1018.54 489.08V489.893C1018.54 490.586 1018.66 491.174 1018.9 491.657C1019.14 492.135 1019.48 492.499 1019.91 492.75C1020.34 492.998 1020.84 493.121 1021.41 493.121C1021.78 493.121 1022.12 493.069 1022.41 492.966C1022.72 492.858 1022.98 492.699 1023.2 492.487C1023.42 492.272 1023.59 492.005 1023.71 491.686L1025.07 492.069C1024.92 492.531 1024.68 492.938 1024.35 493.289C1024.01 493.635 1023.59 493.906 1023.09 494.101C1022.59 494.293 1022.03 494.388 1021.41 494.388ZM1034.24 485.015C1034.17 484.409 1033.88 483.939 1033.37 483.604C1032.86 483.27 1032.24 483.102 1031.49 483.102C1030.95 483.102 1030.48 483.19 1030.07 483.365C1029.67 483.541 1029.35 483.782 1029.13 484.088C1028.9 484.395 1028.79 484.744 1028.79 485.135C1028.79 485.461 1028.87 485.742 1029.03 485.978C1029.19 486.209 1029.39 486.402 1029.64 486.557C1029.88 486.709 1030.14 486.834 1030.41 486.934C1030.68 487.03 1030.93 487.107 1031.16 487.167L1032.4 487.502C1032.72 487.586 1033.08 487.701 1033.47 487.849C1033.86 487.996 1034.24 488.197 1034.6 488.452C1034.96 488.703 1035.26 489.026 1035.49 489.421C1035.73 489.815 1035.85 490.3 1035.85 490.873C1035.85 491.535 1035.67 492.133 1035.33 492.667C1034.98 493.201 1034.48 493.625 1033.82 493.94C1033.16 494.255 1032.36 494.412 1031.42 494.412C1030.55 494.412 1029.79 494.271 1029.15 493.988C1028.51 493.705 1028.01 493.31 1027.64 492.804C1027.28 492.298 1027.07 491.71 1027.02 491.041H1028.55C1028.59 491.503 1028.75 491.886 1029.02 492.189C1029.29 492.487 1029.64 492.711 1030.06 492.858C1030.48 493.002 1030.94 493.073 1031.42 493.073C1031.99 493.073 1032.5 492.982 1032.95 492.798C1033.4 492.611 1033.75 492.352 1034.02 492.021C1034.28 491.686 1034.41 491.296 1034.41 490.85C1034.41 490.443 1034.3 490.112 1034.07 489.857C1033.84 489.602 1033.55 489.395 1033.17 489.235C1032.8 489.076 1032.4 488.937 1031.97 488.817L1030.47 488.387C1029.51 488.112 1028.75 487.719 1028.19 487.209C1027.64 486.699 1027.36 486.031 1027.36 485.206C1027.36 484.521 1027.54 483.923 1027.91 483.413C1028.29 482.899 1028.79 482.5 1029.42 482.217C1030.05 481.93 1030.76 481.787 1031.54 481.787C1032.33 481.787 1033.03 481.928 1033.65 482.211C1034.26 482.49 1034.75 482.873 1035.11 483.359C1035.47 483.845 1035.66 484.397 1035.68 485.015H1034.24ZM1041.94 494.388C1041.06 494.388 1040.29 494.193 1039.65 493.803C1039.02 493.408 1038.52 492.858 1038.18 492.153C1037.83 491.443 1037.66 490.618 1037.66 489.678C1037.66 488.737 1037.83 487.908 1038.18 487.191C1038.52 486.47 1039.01 485.908 1039.62 485.505C1040.24 485.099 1040.97 484.896 1041.8 484.896C1042.28 484.896 1042.75 484.975 1043.22 485.135C1043.68 485.294 1044.11 485.553 1044.49 485.912C1044.87 486.266 1045.18 486.737 1045.4 487.323C1045.63 487.908 1045.74 488.63 1045.74 489.487V490.084H1038.67V488.865H1044.31C1044.31 488.347 1044.21 487.884 1044 487.478C1043.8 487.071 1043.5 486.751 1043.13 486.516C1042.75 486.28 1042.31 486.163 1041.8 486.163C1041.24 486.163 1040.75 486.302 1040.34 486.581C1039.93 486.856 1039.62 487.215 1039.4 487.657C1039.18 488.1 1039.07 488.574 1039.07 489.08V489.893C1039.07 490.586 1039.19 491.174 1039.43 491.657C1039.67 492.135 1040.01 492.499 1040.44 492.75C1040.87 492.998 1041.37 493.121 1041.94 493.121C1042.31 493.121 1042.65 493.069 1042.95 492.966C1043.25 492.858 1043.51 492.699 1043.73 492.487C1043.95 492.272 1044.12 492.005 1044.24 491.686L1045.6 492.069C1045.46 492.531 1045.22 492.938 1044.88 493.289C1044.54 493.635 1044.12 493.906 1043.62 494.101C1043.12 494.293 1042.56 494.388 1041.94 494.388ZM1051.88 485.015V486.211H1047.13V485.015H1051.88ZM1048.51 482.815H1049.92V491.567C1049.92 491.965 1049.98 492.264 1050.1 492.464C1050.22 492.659 1050.37 492.79 1050.55 492.858C1050.74 492.922 1050.94 492.954 1051.14 492.954C1051.3 492.954 1051.43 492.946 1051.53 492.93C1051.62 492.91 1051.7 492.894 1051.76 492.882L1052.05 494.149C1051.96 494.185 1051.82 494.221 1051.65 494.257C1051.48 494.297 1051.26 494.317 1051 494.317C1050.6 494.317 1050.21 494.231 1049.83 494.06C1049.45 493.888 1049.13 493.627 1048.88 493.277C1048.64 492.926 1048.51 492.483 1048.51 491.949V482.815Z" fill="black"/>
<path d="M883.67 580H763.963C755.699 580 749 586.699 749 594.963V621.149C749 629.413 755.699 636.113 763.963 636.113H883.67C891.934 636.113 898.634 629.413 898.634 621.149V594.963C898.634 586.699 891.934 580 883.67 580Z" fill="white" stroke="#111111" stroke-width="1.87042"/>
<path d="M803.483 616V603.757H804.965V614.685H810.656V616H803.483ZM815.462 616.215C814.88 616.215 814.352 616.106 813.878 615.886C813.404 615.663 813.027 615.342 812.748 614.924C812.469 614.502 812.33 613.991 812.33 613.394C812.33 612.868 812.433 612.441 812.641 612.114C812.848 611.784 813.125 611.525 813.472 611.337C813.818 611.15 814.201 611.01 814.619 610.919C815.042 610.823 815.466 610.747 815.893 610.692C816.451 610.62 816.903 610.566 817.25 610.53C817.6 610.49 817.855 610.425 818.015 610.333C818.178 610.241 818.26 610.082 818.26 609.855V609.807C818.26 609.217 818.099 608.759 817.776 608.432C817.457 608.105 816.973 607.942 816.323 607.942C815.65 607.942 815.122 608.089 814.739 608.384C814.356 608.679 814.087 608.994 813.932 609.329L812.593 608.85C812.832 608.292 813.151 607.858 813.549 607.547C813.952 607.232 814.39 607.013 814.864 606.89C815.343 606.762 815.813 606.698 816.275 606.698C816.57 606.698 816.909 606.734 817.292 606.806C817.678 606.874 818.051 607.015 818.409 607.23C818.772 607.446 819.073 607.77 819.312 608.205C819.551 608.639 819.671 609.221 819.671 609.95V616H818.26V614.757H818.188C818.093 614.956 817.933 615.169 817.71 615.396C817.487 615.623 817.19 615.817 816.819 615.976C816.449 616.135 815.996 616.215 815.462 616.215ZM815.677 614.948C816.235 614.948 816.706 614.838 817.088 614.619C817.475 614.4 817.766 614.117 817.961 613.77C818.16 613.424 818.26 613.059 818.26 612.676V611.385C818.2 611.457 818.069 611.523 817.865 611.582C817.666 611.638 817.435 611.688 817.172 611.732C816.913 611.772 816.66 611.807 816.413 611.839C816.17 611.867 815.972 611.891 815.821 611.911C815.454 611.959 815.112 612.037 814.793 612.144C814.478 612.248 814.223 612.405 814.028 612.617C813.836 612.824 813.741 613.107 813.741 613.465C813.741 613.956 813.922 614.326 814.285 614.577C814.651 614.824 815.116 614.948 815.677 614.948ZM822.826 619.443C822.586 619.443 822.373 619.423 822.186 619.383C821.999 619.348 821.869 619.312 821.797 619.276L822.156 618.032C822.499 618.12 822.802 618.152 823.065 618.128C823.328 618.104 823.561 617.987 823.764 617.775C823.971 617.568 824.161 617.231 824.332 616.765L824.595 616.048L821.2 606.818H822.73L825.265 614.135H825.36L827.895 606.818H829.425L825.528 617.339C825.352 617.813 825.135 618.206 824.876 618.517C824.617 618.832 824.316 619.065 823.973 619.216C823.635 619.368 823.252 619.443 822.826 619.443ZM834.808 616.191C833.924 616.191 833.16 615.996 832.519 615.605C831.881 615.211 831.389 614.661 831.042 613.956C830.699 613.246 830.528 612.421 830.528 611.481C830.528 610.54 830.699 609.711 831.042 608.994C831.389 608.273 831.871 607.711 832.489 607.308C833.111 606.902 833.836 606.698 834.665 606.698C835.143 606.698 835.615 606.778 836.082 606.937C836.548 607.097 836.972 607.356 837.355 607.715C837.737 608.069 838.042 608.54 838.269 609.125C838.497 609.711 838.61 610.433 838.61 611.289V611.887H831.532V610.668H837.176C837.176 610.15 837.072 609.687 836.865 609.281C836.661 608.874 836.371 608.554 835.992 608.318C835.617 608.083 835.175 607.966 834.665 607.966C834.103 607.966 833.617 608.105 833.206 608.384C832.8 608.659 832.487 609.018 832.268 609.46C832.048 609.903 831.939 610.377 831.939 610.883V611.696C831.939 612.389 832.058 612.977 832.298 613.459C832.541 613.938 832.877 614.302 833.308 614.553C833.738 614.8 834.238 614.924 834.808 614.924C835.179 614.924 835.514 614.872 835.813 614.769C836.115 614.661 836.376 614.502 836.596 614.29C836.815 614.075 836.984 613.808 837.104 613.489L838.467 613.872C838.323 614.334 838.082 614.741 837.743 615.091C837.405 615.438 836.986 615.709 836.488 615.904C835.99 616.096 835.43 616.191 834.808 616.191ZM840.756 616V606.818H842.119V608.205H842.215C842.382 607.75 842.685 607.382 843.124 607.099C843.562 606.816 844.056 606.674 844.606 606.674C844.71 606.674 844.839 606.676 844.995 606.68C845.15 606.684 845.268 606.69 845.347 606.698V608.133C845.3 608.121 845.19 608.103 845.019 608.079C844.851 608.051 844.674 608.037 844.487 608.037C844.04 608.037 843.642 608.131 843.291 608.318C842.944 608.502 842.669 608.757 842.466 609.084C842.267 609.406 842.167 609.775 842.167 610.189V616H840.756Z" fill="black"/>
<path d="M1089.67 581H969.963C961.699 581 955 587.699 955 595.963V622.149C955 630.413 961.699 637.113 969.963 637.113H1089.67C1097.93 637.113 1104.63 630.413 1104.63 622.149V595.963C1104.63 587.699 1097.93 581 1089.67 581Z" fill="white" stroke="#111111" stroke-width="1.87042"/>
<path d="M1009.4 603.461V615.704H1007.92V603.461H1009.4ZM1016.18 606.522V607.718H1011.42V606.522H1016.18ZM1012.8 604.322H1014.22V613.074C1014.22 613.472 1014.27 613.771 1014.39 613.971C1014.51 614.166 1014.66 614.297 1014.84 614.365C1015.03 614.429 1015.23 614.461 1015.43 614.461C1015.59 614.461 1015.72 614.453 1015.82 614.437C1015.92 614.417 1016 614.401 1016.06 614.389L1016.34 615.656C1016.25 615.692 1016.11 615.728 1015.94 615.764C1015.77 615.804 1015.55 615.824 1015.29 615.824C1014.89 615.824 1014.5 615.738 1014.12 615.567C1013.74 615.395 1013.43 615.134 1013.18 614.784C1012.93 614.433 1012.8 613.991 1012.8 613.457V604.322ZM1022.05 615.896C1021.16 615.896 1020.4 615.7 1019.76 615.31C1019.12 614.915 1018.63 614.365 1018.28 613.66C1017.94 612.95 1017.77 612.125 1017.77 611.185C1017.77 610.244 1017.94 609.415 1018.28 608.698C1018.63 607.977 1019.11 607.415 1019.73 607.012C1020.35 606.606 1021.08 606.403 1021.91 606.403C1022.38 606.403 1022.86 606.482 1023.32 606.642C1023.79 606.801 1024.21 607.06 1024.6 607.419C1024.98 607.774 1025.28 608.244 1025.51 608.83C1025.74 609.415 1025.85 610.137 1025.85 610.994V611.591H1018.77V610.372H1024.42C1024.42 609.854 1024.31 609.392 1024.11 608.985C1023.9 608.579 1023.61 608.258 1023.23 608.023C1022.86 607.787 1022.42 607.67 1021.91 607.67C1021.34 607.67 1020.86 607.809 1020.45 608.088C1020.04 608.363 1019.73 608.722 1019.51 609.164C1019.29 609.607 1019.18 610.081 1019.18 610.587V611.4C1019.18 612.094 1019.3 612.681 1019.54 613.164C1019.78 613.642 1020.12 614.006 1020.55 614.258C1020.98 614.505 1021.48 614.628 1022.05 614.628C1022.42 614.628 1022.75 614.576 1023.05 614.473C1023.36 614.365 1023.62 614.206 1023.84 613.995C1024.06 613.779 1024.23 613.512 1024.34 613.194L1025.71 613.576C1025.56 614.038 1025.32 614.445 1024.98 614.796C1024.65 615.142 1024.23 615.413 1023.73 615.609C1023.23 615.8 1022.67 615.896 1022.05 615.896ZM1028 615.704V606.522H1029.36V607.957H1029.48C1029.67 607.467 1029.98 607.086 1030.41 606.815C1030.83 606.54 1031.35 606.403 1031.94 606.403C1032.55 606.403 1033.05 606.54 1033.46 606.815C1033.86 607.086 1034.18 607.467 1034.41 607.957H1034.5C1034.74 607.483 1035.09 607.106 1035.56 606.827C1036.03 606.544 1036.59 606.403 1037.25 606.403C1038.07 606.403 1038.74 606.66 1039.27 607.174C1039.79 607.684 1040.05 608.479 1040.05 609.559V615.704H1038.64V609.559C1038.64 608.881 1038.45 608.397 1038.08 608.106C1037.71 607.815 1037.28 607.67 1036.77 607.67C1036.13 607.67 1035.63 607.865 1035.27 608.256C1034.92 608.642 1034.74 609.133 1034.74 609.726V615.704H1033.31V609.415C1033.31 608.893 1033.14 608.473 1032.8 608.154C1032.46 607.831 1032.02 607.67 1031.49 607.67C1031.12 607.67 1030.78 607.768 1030.46 607.963C1030.15 608.158 1029.89 608.429 1029.7 608.776C1029.5 609.119 1029.41 609.515 1029.41 609.965V615.704H1028Z" fill="black"/>
<path d="M1029.82 637.113V655.817" stroke="#111111" stroke-width="1.87042"/>
<path d="M1089.67 655.817H969.963C961.699 655.817 955 662.516 955 670.78V696.966C955 705.23 961.699 711.93 969.963 711.93H1089.67C1097.93 711.93 1104.63 705.23 1104.63 696.966V670.78C1104.63 662.516 1097.93 655.817 1089.67 655.817Z" fill="white" stroke="#111111" stroke-width="1.87042"/>
<path d="M1007.25 679.593V678.278H1016.43V679.593H1012.58V690.521H1011.1V679.593H1007.25ZM1018.53 690.521V681.339H1019.94V690.521H1018.53ZM1019.25 679.809C1018.97 679.809 1018.73 679.715 1018.53 679.528C1018.34 679.34 1018.24 679.115 1018.24 678.852C1018.24 678.589 1018.34 678.364 1018.53 678.177C1018.73 677.989 1018.97 677.896 1019.25 677.896C1019.52 677.896 1019.76 677.989 1019.95 678.177C1020.15 678.364 1020.25 678.589 1020.25 678.852C1020.25 679.115 1020.15 679.34 1019.95 679.528C1019.76 679.715 1019.52 679.809 1019.25 679.809ZM1023.93 678.278V690.521H1022.52V678.278H1023.93ZM1030.37 690.712C1029.48 690.712 1028.72 690.517 1028.08 690.127C1027.44 689.732 1026.95 689.182 1026.6 688.477C1026.26 687.767 1026.09 686.942 1026.09 686.002C1026.09 685.061 1026.26 684.232 1026.6 683.515C1026.95 682.794 1027.43 682.232 1028.05 681.829C1028.67 681.423 1029.4 681.219 1030.22 681.219C1030.7 681.219 1031.17 681.299 1031.64 681.459C1032.11 681.618 1032.53 681.877 1032.91 682.236C1033.3 682.59 1033.6 683.061 1033.83 683.647C1034.06 684.232 1034.17 684.954 1034.17 685.811V686.408H1027.09V685.189H1032.73C1032.73 684.671 1032.63 684.208 1032.42 683.802C1032.22 683.395 1031.93 683.075 1031.55 682.839C1031.18 682.604 1030.73 682.487 1030.22 682.487C1029.66 682.487 1029.18 682.626 1028.77 682.905C1028.36 683.18 1028.05 683.539 1027.83 683.981C1027.61 684.424 1027.5 684.898 1027.5 685.404V686.217C1027.5 686.91 1027.62 687.498 1027.86 687.981C1028.1 688.459 1028.44 688.823 1028.87 689.074C1029.3 689.322 1029.8 689.445 1030.37 689.445C1030.74 689.445 1031.07 689.393 1031.37 689.29C1031.67 689.182 1031.94 689.023 1032.16 688.811C1032.37 688.596 1032.54 688.329 1032.66 688.01L1034.03 688.393C1033.88 688.855 1033.64 689.262 1033.3 689.612C1032.96 689.959 1032.55 690.23 1032.05 690.425C1031.55 690.617 1030.99 690.712 1030.37 690.712Z" fill="black"/>
<line x1="820.5" y1="516" x2="820.5" y2="581" stroke="black"/>
<line x1="1027.5" y1="517" x2="1027.5" y2="582" stroke="black"/>
<line x1="815.5" y1="432" x2="815.5" y2="459" stroke="black"/>
<line x1="1039.5" y1="430" x2="1039.5" y2="459" stroke="black"/>
<line x1="160.5" y1="431" x2="160.5" y2="460" stroke="black"/>
<line x1="310.5" y1="430" x2="310.5" y2="459" stroke="black"/>
<line x1="936.5" y1="272" x2="936.5" y2="301" stroke="black"/>
<line x1="581.5" y1="273" x2="581.5" y2="302" stroke="black"/>
<line x1="227.5" y1="273" x2="227.5" y2="301" stroke="black"/>
</svg>
