<svg width="624" height="619" viewBox="0 0 624 619" fill="none" xmlns="http://www.w3.org/2000/svg">
<path d="M191.126 52.7965C228.977 35.1464 270.233 26 311.996 26C353.76 26 395.016 35.1464 432.866 52.7965" stroke="white" stroke-width="52" stroke-linecap="round"/>
<path d="M521.16 116.945C549.642 147.489 571.09 183.9 583.995 223.619C596.901 263.338 600.951 305.402 595.861 346.854" stroke="white" stroke-width="52" stroke-linecap="round"/>
<path d="M562.137 450.648C541.89 487.175 513.888 518.825 480.101 543.373C446.314 567.92 407.561 584.771 366.565 592.739" stroke="white" stroke-width="52" stroke-linecap="round"/>
<path d="M257.429 592.739C216.433 584.771 177.68 567.92 143.892 543.373C110.105 518.825 82.1041 487.175 61.8571 450.648" stroke="white" stroke-width="52" stroke-linecap="round"/>
<path d="M28.132 346.854C23.0421 305.402 27.0923 263.338 39.9979 223.619C52.9034 183.9 74.3512 147.489 102.834 116.945" stroke="white" stroke-width="52" stroke-linecap="round"/>
<path d="M311.997 423.997C373.852 423.997 423.997 373.852 423.997 311.997C423.997 250.141 373.852 199.997 311.997 199.997C250.141 199.997 199.997 250.141 199.997 311.997C199.997 373.852 250.141 423.997 311.997 423.997Z" fill="white"/>
</svg>
